<svg id="Слой_1" data-name="Слой 1" xmlns="http://www.w3.org/2000/svg" viewBox="0 0 512 512"><defs><style>.cls-1{fill:#42a69e;}.cls-2{fill:#c03738;}</style></defs><polygon class="cls-1" points="440 0 440 188.65 264 129.8 264 80.43 29 160.86 29 0 440 0"/><polygon class="cls-2" points="68 190.87 68 298.9 127 288.65 127 172.17 68 190.87 68 190.87"/><polygon class="cls-2" points="146 166.16 146 285.35 204 275.28 204 147.78 146 166.16 146 166.16"/><polygon class="cls-2" points="68 318.29 68 430.94 127 430.94 127 309.56 68 318.29 68 318.29"/><polygon class="cls-2" points="146 306.75 146 431.04 204 431.12 204 298.17 146 306.75 146 306.75"/><path class="cls-1" d="M264,147.78V494.32H29V512H488V225.52Zm121,88.87,55,15.77v98l-55-8.59Zm0,121.16,55,7.48V466H385ZM315,216.57l55,15.77v107.1l-55-8.58Zm0,131.73,55,7.47V466H315Z"/></svg>