<svg id="Слой_1" data-name="Слой 1" xmlns="http://www.w3.org/2000/svg" viewBox="0 0 1024 1024"><defs><style>.cls-1{fill:#c03738;}</style></defs><path class="cls-1" d="M291.46,712a48,48,0,1,0,47.68,48.21A48.25,48.25,0,0,0,291.46,712Zm.05,64a16,16,0,1,1-.32-32,16,16,0,0,1,.32,32Zm202.38-88q-54,0-107.95,0c-11.58,0-17.88,6.36-17.9,18,0,18,0,36,0,54q0,26.75,0,53.48c0,12.3,6.17,18.53,18.37,18.53q53.73,0,107.45,0c11.91,0,18.14-6.27,18.15-18.23q0-53.73,0-107.45C512,694.28,505.76,688,493.89,688Zm-13.81,37c-.21,11.81-.08,23.63-.08,35.45,0,11.65-.09,23.3.07,34.94,0,3.26-.58,4.7-4.31,4.68q-35.68-.24-71.39,0c-3.59,0-4.43-1.18-4.41-4.57.12-23.63.15-47.26,0-70.89,0-3.85,1.21-4.7,4.83-4.67q35.19.23,70.4,0C479.22,719.83,480.15,721.16,480.08,725ZM672,705.6c0-11.22-6.46-17.62-17.75-17.63q-54.23,0-108.45,0c-11.29,0-17.74,6.4-17.75,17.62q-.06,54.23,0,108.46c0,11.55,6.39,17.86,18,17.88,17.82,0,35.65,0,53.47,0,18.33,0,36.65,0,55,0,11,0,17.48-6.47,17.49-17.37Q672,760.08,672,705.6ZM635.18,800q-35.2-.21-70.4,0c-3.56,0-4.91-.72-4.88-4.63q.27-35.45,0-70.89c0-3.94,1.35-4.67,4.89-4.61,11.81.19,23.63.07,35.45.07,11.65,0,23.3.13,35-.07,3.56-.06,4.9.72,4.87,4.63q-.27,35.44,0,70.89C640.1,799.35,638.71,800,635.18,800ZM813.8,688q-54,0-107.95,0C694.3,688,688,694.36,688,706c0,18,0,36,0,54q0,26.74,0,53.48c0,12.29,6.17,18.5,18.39,18.5q53.73,0,107.45,0c11.89,0,18.12-6.29,18.12-18.26q0-53.73,0-107.45C831.93,694.27,825.69,688,813.8,688ZM795.4,800q-35.46-.28-70.9,0c-3.94,0-4.63-1.37-4.61-4.9q.21-35.21,0-70.4c0-3.56.72-4.9,4.62-4.87q35.44.28,70.9,0c3.94,0,4.66,1.37,4.61,4.9-.19,11.81-.08,23.63-.07,35.45,0,11.65-.13,23.3.07,34.95C800.08,798.73,799.3,800.07,795.4,800ZM813.8,688q-54,0-107.95,0C694.3,688,688,694.36,688,706c0,18,0,36,0,54q0,26.74,0,53.48c0,12.29,6.17,18.5,18.39,18.5q53.73,0,107.45,0c11.89,0,18.12-6.29,18.12-18.26q0-53.73,0-107.45C831.93,694.27,825.69,688,813.8,688ZM795.4,800q-35.46-.28-70.9,0c-3.94,0-4.63-1.37-4.61-4.9q.21-35.21,0-70.4c0-3.56.72-4.9,4.62-4.87q35.44.28,70.9,0c3.94,0,4.66,1.37,4.61,4.9-.19,11.81-.08,23.63-.07,35.45,0,11.65-.13,23.3.07,34.95C800.08,798.73,799.3,800.07,795.4,800ZM672,705.6c0-11.22-6.46-17.62-17.75-17.63q-54.23,0-108.45,0c-11.29,0-17.74,6.4-17.75,17.62q-.06,54.23,0,108.46c0,11.55,6.39,17.86,18,17.88,17.82,0,35.65,0,53.47,0,18.33,0,36.65,0,55,0,11,0,17.48-6.47,17.49-17.37Q672,760.08,672,705.6ZM635.18,800q-35.2-.21-70.4,0c-3.56,0-4.91-.72-4.88-4.63q.27-35.45,0-70.89c0-3.94,1.35-4.67,4.89-4.61,11.81.19,23.63.07,35.45.07,11.65,0,23.3.13,35-.07,3.56-.06,4.9.72,4.87,4.63q-.27,35.44,0,70.89C640.1,799.35,638.71,800,635.18,800ZM493.89,688q-54,0-107.95,0c-11.58,0-17.88,6.36-17.9,18,0,18,0,36,0,54q0,26.75,0,53.48c0,12.3,6.17,18.53,18.37,18.53q53.73,0,107.45,0c11.91,0,18.14-6.27,18.15-18.23q0-53.73,0-107.45C512,694.28,505.76,688,493.89,688Zm-13.81,37c-.21,11.81-.08,23.63-.08,35.45,0,11.65-.09,23.3.07,34.94,0,3.26-.58,4.7-4.31,4.68q-35.68-.24-71.39,0c-3.59,0-4.43-1.18-4.41-4.57.12-23.63.15-47.26,0-70.89,0-3.85,1.21-4.7,4.83-4.67q35.19.23,70.4,0C479.22,719.83,480.15,721.16,480.08,725ZM291.46,712a48,48,0,1,0,47.68,48.21A48.25,48.25,0,0,0,291.46,712Zm.05,64a16,16,0,1,1-.32-32,16,16,0,0,1,.32,32Zm-.05-64a48,48,0,1,0,47.68,48.21A48.25,48.25,0,0,0,291.46,712Zm.05,64a16,16,0,1,1-.32-32,16,16,0,0,1,.32,32Zm202.38-88q-54,0-107.95,0c-11.58,0-17.88,6.36-17.9,18,0,18,0,36,0,54q0,26.75,0,53.48c0,12.3,6.17,18.53,18.37,18.53q53.73,0,107.45,0c11.91,0,18.14-6.27,18.15-18.23q0-53.73,0-107.45C512,694.28,505.76,688,493.89,688Zm-13.81,37c-.21,11.81-.08,23.63-.08,35.45,0,11.65-.09,23.3.07,34.94,0,3.26-.58,4.7-4.31,4.68q-35.68-.24-71.39,0c-3.59,0-4.43-1.18-4.41-4.57.12-23.63.15-47.26,0-70.89,0-3.85,1.21-4.7,4.83-4.67q35.19.23,70.4,0C479.22,719.83,480.15,721.16,480.08,725ZM672,705.6c0-11.22-6.46-17.62-17.75-17.63q-54.23,0-108.45,0c-11.29,0-17.74,6.4-17.75,17.62q-.06,54.23,0,108.46c0,11.55,6.39,17.86,18,17.88,17.82,0,35.65,0,53.47,0,18.33,0,36.65,0,55,0,11,0,17.48-6.47,17.49-17.37Q672,760.08,672,705.6ZM635.18,800q-35.2-.21-70.4,0c-3.56,0-4.91-.72-4.88-4.63q.27-35.45,0-70.89c0-3.94,1.35-4.67,4.89-4.61,11.81.19,23.63.07,35.45.07,11.65,0,23.3.13,35-.07,3.56-.06,4.9.72,4.87,4.63q-.27,35.44,0,70.89C640.1,799.35,638.71,800,635.18,800ZM813.8,688q-54,0-107.95,0C694.3,688,688,694.36,688,706c0,18,0,36,0,54q0,26.74,0,53.48c0,12.29,6.17,18.5,18.39,18.5q53.73,0,107.45,0c11.89,0,18.12-6.29,18.12-18.26q0-53.73,0-107.45C831.93,694.27,825.69,688,813.8,688ZM795.4,800q-35.46-.28-70.9,0c-3.94,0-4.63-1.37-4.61-4.9q.21-35.21,0-70.4c0-3.56.72-4.9,4.62-4.87q35.44.28,70.9,0c3.94,0,4.66,1.37,4.61,4.9-.19,11.81-.08,23.63-.07,35.45,0,11.65-.13,23.3.07,34.95C800.08,798.73,799.3,800.07,795.4,800ZM813.8,688q-54,0-107.95,0C694.3,688,688,694.36,688,706c0,18,0,36,0,54q0,26.74,0,53.48c0,12.29,6.17,18.5,18.39,18.5q53.73,0,107.45,0c11.89,0,18.12-6.29,18.12-18.26q0-53.73,0-107.45C831.93,694.27,825.69,688,813.8,688ZM795.4,800q-35.46-.28-70.9,0c-3.94,0-4.63-1.37-4.61-4.9q.21-35.21,0-70.4c0-3.56.72-4.9,4.62-4.87q35.44.28,70.9,0c3.94,0,4.66,1.37,4.61,4.9-.19,11.81-.08,23.63-.07,35.45,0,11.65-.13,23.3.07,34.95C800.08,798.73,799.3,800.07,795.4,800ZM672,705.6c0-11.22-6.46-17.62-17.75-17.63q-54.23,0-108.45,0c-11.29,0-17.74,6.4-17.75,17.62q-.06,54.23,0,108.46c0,11.55,6.39,17.86,18,17.88,17.82,0,35.65,0,53.47,0,18.33,0,36.65,0,55,0,11,0,17.48-6.47,17.49-17.37Q672,760.08,672,705.6ZM635.18,800q-35.2-.21-70.4,0c-3.56,0-4.91-.72-4.88-4.63q.27-35.45,0-70.89c0-3.94,1.35-4.67,4.89-4.61,11.81.19,23.63.07,35.45.07,11.65,0,23.3.13,35-.07,3.56-.06,4.9.72,4.87,4.63q-.27,35.44,0,70.89C640.1,799.35,638.71,800,635.18,800ZM493.89,688q-54,0-107.95,0c-11.58,0-17.88,6.36-17.9,18,0,18,0,36,0,54q0,26.75,0,53.48c0,12.3,6.17,18.53,18.37,18.53q53.73,0,107.45,0c11.91,0,18.14-6.27,18.15-18.23q0-53.73,0-107.45C512,694.28,505.76,688,493.89,688Zm-13.81,37c-.21,11.81-.08,23.63-.08,35.45,0,11.65-.09,23.3.07,34.94,0,3.26-.58,4.7-4.31,4.68q-35.68-.24-71.39,0c-3.59,0-4.43-1.18-4.41-4.57.12-23.63.15-47.26,0-70.89,0-3.85,1.21-4.7,4.83-4.67q35.19.23,70.4,0C479.22,719.83,480.15,721.16,480.08,725ZM291.46,712a48,48,0,1,0,47.68,48.21A48.25,48.25,0,0,0,291.46,712Zm.05,64a16,16,0,1,1-.32-32,16,16,0,0,1,.32,32Zm-.05-64a48,48,0,1,0,47.68,48.21A48.25,48.25,0,0,0,291.46,712Zm.05,64a16,16,0,1,1-.32-32,16,16,0,0,1,.32,32Zm202.38-88q-54,0-107.95,0c-11.58,0-17.88,6.36-17.9,18,0,18,0,36,0,54q0,26.75,0,53.48c0,12.3,6.17,18.53,18.37,18.53q53.73,0,107.45,0c11.91,0,18.14-6.27,18.15-18.23q0-53.73,0-107.45C512,694.28,505.76,688,493.89,688Zm-13.81,37c-.21,11.81-.08,23.63-.08,35.45,0,11.65-.09,23.3.07,34.94,0,3.26-.58,4.7-4.31,4.68q-35.68-.24-71.39,0c-3.59,0-4.43-1.18-4.41-4.57.12-23.63.15-47.26,0-70.89,0-3.85,1.21-4.7,4.83-4.67q35.19.23,70.4,0C479.22,719.83,480.15,721.16,480.08,725ZM672,705.6c0-11.22-6.46-17.62-17.75-17.63q-54.23,0-108.45,0c-11.29,0-17.74,6.4-17.75,17.62q-.06,54.23,0,108.46c0,11.55,6.39,17.86,18,17.88,17.82,0,35.65,0,53.47,0,18.33,0,36.65,0,55,0,11,0,17.48-6.47,17.49-17.37Q672,760.08,672,705.6ZM635.18,800q-35.2-.21-70.4,0c-3.56,0-4.91-.72-4.88-4.63q.27-35.45,0-70.89c0-3.94,1.35-4.67,4.89-4.61,11.81.19,23.63.07,35.45.07,11.65,0,23.3.13,35-.07,3.56-.06,4.9.72,4.87,4.63q-.27,35.44,0,70.89C640.1,799.35,638.71,800,635.18,800ZM813.8,688q-54,0-107.95,0C694.3,688,688,694.36,688,706c0,18,0,36,0,54q0,26.74,0,53.48c0,12.29,6.17,18.5,18.39,18.5q53.73,0,107.45,0c11.89,0,18.12-6.29,18.12-18.26q0-53.73,0-107.45C831.93,694.27,825.69,688,813.8,688ZM795.4,800q-35.46-.28-70.9,0c-3.94,0-4.63-1.37-4.61-4.9q.21-35.21,0-70.4c0-3.56.72-4.9,4.62-4.87q35.44.28,70.9,0c3.94,0,4.66,1.37,4.61,4.9-.19,11.81-.08,23.63-.07,35.45,0,11.65-.13,23.3.07,34.95C800.08,798.73,799.3,800.07,795.4,800ZM813.8,688q-54,0-107.95,0C694.3,688,688,694.36,688,706c0,18,0,36,0,54q0,26.74,0,53.48c0,12.29,6.17,18.5,18.39,18.5q53.73,0,107.45,0c11.89,0,18.12-6.29,18.12-18.26q0-53.73,0-107.45C831.93,694.27,825.69,688,813.8,688ZM795.4,800q-35.46-.28-70.9,0c-3.94,0-4.63-1.37-4.61-4.9q.21-35.21,0-70.4c0-3.56.72-4.9,4.62-4.87q35.44.28,70.9,0c3.94,0,4.66,1.37,4.61,4.9-.19,11.81-.08,23.63-.07,35.45,0,11.65-.13,23.3.07,34.95C800.08,798.73,799.3,800.07,795.4,800ZM672,705.6c0-11.22-6.46-17.62-17.75-17.63q-54.23,0-108.45,0c-11.29,0-17.74,6.4-17.75,17.62q-.06,54.23,0,108.46c0,11.55,6.39,17.86,18,17.88,17.82,0,35.65,0,53.47,0,18.33,0,36.65,0,55,0,11,0,17.48-6.47,17.49-17.37Q672,760.08,672,705.6ZM635.18,800q-35.2-.21-70.4,0c-3.56,0-4.91-.72-4.88-4.63q.27-35.45,0-70.89c0-3.94,1.35-4.67,4.89-4.61,11.81.19,23.63.07,35.45.07,11.65,0,23.3.13,35-.07,3.56-.06,4.9.72,4.87,4.63q-.27,35.44,0,70.89C640.1,799.35,638.71,800,635.18,800ZM493.89,688q-54,0-107.95,0c-11.58,0-17.88,6.36-17.9,18,0,18,0,36,0,54q0,26.75,0,53.48c0,12.3,6.17,18.53,18.37,18.53q53.73,0,107.45,0c11.91,0,18.14-6.27,18.15-18.23q0-53.73,0-107.45C512,694.28,505.76,688,493.89,688Zm-13.81,37c-.21,11.81-.08,23.63-.08,35.45,0,11.65-.09,23.3.07,34.94,0,3.26-.58,4.7-4.31,4.68q-35.68-.24-71.39,0c-3.59,0-4.43-1.18-4.41-4.57.12-23.63.15-47.26,0-70.89,0-3.85,1.21-4.7,4.83-4.67q35.19.23,70.4,0C479.22,719.83,480.15,721.16,480.08,725ZM291.46,712a48,48,0,1,0,47.68,48.21A48.25,48.25,0,0,0,291.46,712Zm.05,64a16,16,0,1,1-.32-32,16,16,0,0,1,.32,32Zm-.05-64a48,48,0,1,0,47.68,48.21A48.25,48.25,0,0,0,291.46,712Zm.05,64a16,16,0,1,1-.32-32,16,16,0,0,1,.32,32Zm202.38-88q-54,0-107.95,0c-11.58,0-17.88,6.36-17.9,18,0,18,0,36,0,54q0,26.75,0,53.48c0,12.3,6.17,18.53,18.37,18.53q53.73,0,107.45,0c11.91,0,18.14-6.27,18.15-18.23q0-53.73,0-107.45C512,694.28,505.76,688,493.89,688Zm-13.81,37c-.21,11.81-.08,23.63-.08,35.45,0,11.65-.09,23.3.07,34.94,0,3.26-.58,4.7-4.31,4.68q-35.68-.24-71.39,0c-3.59,0-4.43-1.18-4.41-4.57.12-23.63.15-47.26,0-70.89,0-3.85,1.21-4.7,4.83-4.67q35.19.23,70.4,0C479.22,719.83,480.15,721.16,480.08,725ZM672,705.6c0-11.22-6.46-17.62-17.75-17.63q-54.23,0-108.45,0c-11.29,0-17.74,6.4-17.75,17.62q-.06,54.23,0,108.46c0,11.55,6.39,17.86,18,17.88,17.82,0,35.65,0,53.47,0,18.33,0,36.65,0,55,0,11,0,17.48-6.47,17.49-17.37Q672,760.08,672,705.6ZM635.18,800q-35.2-.21-70.4,0c-3.56,0-4.91-.72-4.88-4.63q.27-35.45,0-70.89c0-3.94,1.35-4.67,4.89-4.61,11.81.19,23.63.07,35.45.07,11.65,0,23.3.13,35-.07,3.56-.06,4.9.72,4.87,4.63q-.27,35.44,0,70.89C640.1,799.35,638.71,800,635.18,800ZM813.8,688q-54,0-107.95,0C694.3,688,688,694.36,688,706c0,18,0,36,0,54q0,26.74,0,53.48c0,12.29,6.17,18.5,18.39,18.5q53.73,0,107.45,0c11.89,0,18.12-6.29,18.12-18.26q0-53.73,0-107.45C831.93,694.27,825.69,688,813.8,688ZM795.4,800q-35.46-.28-70.9,0c-3.94,0-4.63-1.37-4.61-4.9q.21-35.21,0-70.4c0-3.56.72-4.9,4.62-4.87q35.44.28,70.9,0c3.94,0,4.66,1.37,4.61,4.9-.19,11.81-.08,23.63-.07,35.45,0,11.65-.13,23.3.07,34.95C800.08,798.73,799.3,800.07,795.4,800ZM813.8,688q-54,0-107.95,0C694.3,688,688,694.36,688,706c0,18,0,36,0,54q0,26.74,0,53.48c0,12.29,6.17,18.5,18.39,18.5q53.73,0,107.45,0c11.89,0,18.12-6.29,18.12-18.26q0-53.73,0-107.45C831.93,694.27,825.69,688,813.8,688ZM795.4,800q-35.46-.28-70.9,0c-3.94,0-4.63-1.37-4.61-4.9q.21-35.21,0-70.4c0-3.56.72-4.9,4.62-4.87q35.44.28,70.9,0c3.94,0,4.66,1.37,4.61,4.9-.19,11.81-.08,23.63-.07,35.45,0,11.65-.13,23.3.07,34.95C800.08,798.73,799.3,800.07,795.4,800ZM654.21,688q-54.23,0-108.45,0c-11.29,0-17.74,6.4-17.75,17.62q-.06,54.23,0,108.46c0,11.55,6.39,17.86,18,17.88,17.82,0,35.65,0,53.47,0,18.33,0,36.65,0,55,0,11,0,17.48-6.47,17.49-17.37q.07-54.48,0-109C672,694.38,665.5,688,654.21,688Zm-19,112q-35.2-.21-70.4,0c-3.56,0-4.91-.72-4.88-4.63q.27-35.45,0-70.89c0-3.94,1.35-4.67,4.89-4.61,11.81.19,23.63.07,35.45.07,11.65,0,23.3.13,35-.07,3.56-.06,4.9.72,4.87,4.63q-.27,35.44,0,70.89C640.1,799.35,638.71,800,635.18,800ZM493.89,688q-54,0-107.95,0c-11.58,0-17.88,6.36-17.9,18,0,18,0,36,0,54q0,26.75,0,53.48c0,12.3,6.17,18.53,18.37,18.53q53.73,0,107.45,0c11.91,0,18.14-6.27,18.15-18.23q0-53.73,0-107.45C512,694.28,505.76,688,493.89,688Zm-13.81,37c-.21,11.81-.08,23.63-.08,35.45,0,11.65-.09,23.3.07,34.94,0,3.26-.58,4.7-4.31,4.68q-35.68-.24-71.39,0c-3.59,0-4.43-1.18-4.41-4.57.12-23.63.15-47.26,0-70.89,0-3.85,1.21-4.7,4.83-4.67q35.19.23,70.4,0C479.22,719.83,480.15,721.16,480.08,725ZM291.46,712a48,48,0,1,0,47.68,48.21A48.25,48.25,0,0,0,291.46,712Zm.05,64a16,16,0,1,1-.32-32,16,16,0,0,1,.32,32Zm604.42,29.64q0-66.24,0-132.47c0-25.43-17-45.14-42-48.64-6.06-.85-12.3-.46-18.46-.48-18.13,0-36.26,0-54.39,0-.13-.38-.25-.77-.37-1.15l6.75-4.05c22.62-13.46,45.15-27.06,67.88-40.31,23-13.42,35-43.85,17.62-69.27-1.78-2.61-3.28-5.41-4.91-8.12q-41.91-69.84-83.77-139.7c-12.59-21.11-42.07-34.09-68.35-17.12-18.59,12-37.95,22.84-57,34.16-1.32.79-2.52,2-4.83,2,8.73-16.42,17.26-32.41,25.73-48.43,14.23-26.92,5.72-54.95-21.07-69.33q-74.61-40.05-149.27-80c-26.61-14.25-55.17-5.52-69.3,21.09-2.36,4.46-4.75,8.91-7.12,13.37a23,23,0,0,1-1-8.16,43.6,43.6,0,0,0-12.39-30.74c-11.32-12-25.3-18.11-41.85-18.11q-86.47,0-173,0c-23.09,0-40,14.31-43.73,37.18-2.19,13.4-1,26.94-1,40.42q-.12,304.19,0,608.37c0,28.65,20.62,49.85,48.72,49.85q318.93.09,637.87,0c28.43,0,49.08-20.84,49.24-49.33C896,832.91,895.93,819.24,895.93,805.58ZM733.6,371.13c8.58-5.12,17.45-2.62,23.23,6.85,9,14.78,17.85,29.67,26.76,44.52q31,51.62,61.94,103.23c6.1,10.17,4.09,18.68-6.18,24.91-13.67,8.29-27.46,16.36-41.2,24.54q-39.06,23.24-78.1,46.51A15.62,15.62,0,0,1,711.6,624q-197.64-.09-395.29-.09c-1.4,0-2.93.52-4.32-.54.93-1.83,2.8-2.32,4.29-3.21Q524.93,495.63,733.6,371.13ZM467.44,220.24c6.81-12.9,17.89-14.53,28.42-8.8,49,26.66,98.24,52.81,147.39,79.16,11.7,6.27,14.36,14.92,8.19,26.55q-24.47,46.1-48.93,92.2a15.6,15.6,0,0,1-6,6.41q-168,100.13-335.91,200.34c-1.1.65-2.24,1.25-3.35,1.88l-.61-.77,23.43-44.08Q373.83,396.73,467.44,220.24ZM192.06,520.59V213.7c0-2.33-.05-4.66.05-7,.44-10.88,4.3-14.64,15-14.64q84.72,0,169.44-.06c6.07,0,11.53,1.38,16.4,5,4.69,3.45,7.25,7.8,7.18,14-.22,19.66-.54,39.34.18,59,.24,6.6-1.49,11.81-4.4,17.28Q307.64,453,219.61,618.89c-2.12,4-4.41,5.59-8.82,5.16a35.12,35.12,0,0,0-14.33,1.49c-3.7,1.21-4.48.16-4.47-3.49C192.1,588.23,192.06,554.41,192.06,520.59ZM863.93,845.28c0,12.51-6.19,18.65-18.78,18.65q-317.14,0-634.29,0c-12.61,0-18.78-6.08-18.79-18.62q0-85.47,0-170.94c0-12.19,6.25-18.39,18.53-18.39H845.38c12.27,0,18.55,6.21,18.55,18.36Q863.95,759.81,863.93,845.28ZM813.8,688q-54,0-107.95,0C694.3,688,688,694.36,688,706c0,18,0,36,0,54q0,26.74,0,53.48c0,12.29,6.17,18.5,18.39,18.5q53.73,0,107.45,0c11.89,0,18.12-6.29,18.12-18.26q0-53.73,0-107.45C831.93,694.27,825.69,688,813.8,688ZM795.4,800q-35.46-.28-70.9,0c-3.94,0-4.63-1.37-4.61-4.9q.21-35.21,0-70.4c0-3.56.72-4.9,4.62-4.87q35.44.28,70.9,0c3.94,0,4.66,1.37,4.61,4.9-.19,11.81-.08,23.63-.07,35.45,0,11.65-.13,23.3.07,34.95C800.08,798.73,799.3,800.07,795.4,800ZM654.21,688q-54.23,0-108.45,0c-11.29,0-17.74,6.4-17.75,17.62q-.06,54.23,0,108.46c0,11.55,6.39,17.86,18,17.88,17.82,0,35.65,0,53.47,0,18.33,0,36.65,0,55,0,11,0,17.48-6.47,17.49-17.37q.07-54.48,0-109C672,694.38,665.5,688,654.21,688Zm-19,112q-35.2-.21-70.4,0c-3.56,0-4.91-.72-4.88-4.63q.27-35.45,0-70.89c0-3.94,1.35-4.67,4.89-4.61,11.81.19,23.63.07,35.45.07,11.65,0,23.3.13,35-.07,3.56-.06,4.9.72,4.87,4.63q-.27,35.44,0,70.89C640.1,799.35,638.71,800,635.18,800ZM493.89,688q-54,0-107.95,0c-11.58,0-17.88,6.36-17.9,18,0,18,0,36,0,54q0,26.75,0,53.48c0,12.3,6.17,18.53,18.37,18.53q53.73,0,107.45,0c11.91,0,18.14-6.27,18.15-18.23q0-53.73,0-107.45C512,694.28,505.76,688,493.89,688Zm-13.81,37c-.21,11.81-.08,23.63-.08,35.45,0,11.65-.09,23.3.07,34.94,0,3.26-.58,4.7-4.31,4.68q-35.68-.24-71.39,0c-3.59,0-4.43-1.18-4.41-4.57.12-23.63.15-47.26,0-70.89,0-3.85,1.21-4.7,4.83-4.67q35.19.23,70.4,0C479.22,719.83,480.15,721.16,480.08,725ZM291.46,712a48,48,0,1,0,47.68,48.21A48.25,48.25,0,0,0,291.46,712Zm.05,64a16,16,0,1,1-.32-32,16,16,0,0,1,.32,32Zm-.05-64a48,48,0,1,0,47.68,48.21A48.25,48.25,0,0,0,291.46,712Zm.05,64a16,16,0,1,1-.32-32,16,16,0,0,1,.32,32Zm202.38-88q-54,0-107.95,0c-11.58,0-17.88,6.36-17.9,18,0,18,0,36,0,54q0,26.75,0,53.48c0,12.3,6.17,18.53,18.37,18.53q53.73,0,107.45,0c11.91,0,18.14-6.27,18.15-18.23q0-53.73,0-107.45C512,694.28,505.76,688,493.89,688Zm-13.81,37c-.21,11.81-.08,23.63-.08,35.45,0,11.65-.09,23.3.07,34.94,0,3.26-.58,4.7-4.31,4.68q-35.68-.24-71.39,0c-3.59,0-4.43-1.18-4.41-4.57.12-23.63.15-47.26,0-70.89,0-3.85,1.21-4.7,4.83-4.67q35.19.23,70.4,0C479.22,719.83,480.15,721.16,480.08,725ZM672,705.6c0-11.22-6.46-17.62-17.75-17.63q-54.23,0-108.45,0c-11.29,0-17.74,6.4-17.75,17.62q-.06,54.23,0,108.46c0,11.55,6.39,17.86,18,17.88,17.82,0,35.65,0,53.47,0,18.33,0,36.65,0,55,0,11,0,17.48-6.47,17.49-17.37Q672,760.08,672,705.6ZM635.18,800q-35.2-.21-70.4,0c-3.56,0-4.91-.72-4.88-4.63q.27-35.45,0-70.89c0-3.94,1.35-4.67,4.89-4.61,11.81.19,23.63.07,35.45.07,11.65,0,23.3.13,35-.07,3.56-.06,4.9.72,4.87,4.63q-.27,35.44,0,70.89C640.1,799.35,638.71,800,635.18,800ZM813.8,688q-54,0-107.95,0C694.3,688,688,694.36,688,706c0,18,0,36,0,54q0,26.74,0,53.48c0,12.29,6.17,18.5,18.39,18.5q53.73,0,107.45,0c11.89,0,18.12-6.29,18.12-18.26q0-53.73,0-107.45C831.93,694.27,825.69,688,813.8,688ZM795.4,800q-35.46-.28-70.9,0c-3.94,0-4.63-1.37-4.61-4.9q.21-35.21,0-70.4c0-3.56.72-4.9,4.62-4.87q35.44.28,70.9,0c3.94,0,4.66,1.37,4.61,4.9-.19,11.81-.08,23.63-.07,35.45,0,11.65-.13,23.3.07,34.95C800.08,798.73,799.3,800.07,795.4,800ZM813.8,688q-54,0-107.95,0C694.3,688,688,694.36,688,706c0,18,0,36,0,54q0,26.74,0,53.48c0,12.29,6.17,18.5,18.39,18.5q53.73,0,107.45,0c11.89,0,18.12-6.29,18.12-18.26q0-53.73,0-107.45C831.93,694.27,825.69,688,813.8,688ZM795.4,800q-35.46-.28-70.9,0c-3.94,0-4.63-1.37-4.61-4.9q.21-35.21,0-70.4c0-3.56.72-4.9,4.62-4.87q35.44.28,70.9,0c3.94,0,4.66,1.37,4.61,4.9-.19,11.81-.08,23.63-.07,35.45,0,11.65-.13,23.3.07,34.95C800.08,798.73,799.3,800.07,795.4,800ZM672,705.6c0-11.22-6.46-17.62-17.75-17.63q-54.23,0-108.45,0c-11.29,0-17.74,6.4-17.75,17.62q-.06,54.23,0,108.46c0,11.55,6.39,17.86,18,17.88,17.82,0,35.65,0,53.47,0,18.33,0,36.65,0,55,0,11,0,17.48-6.47,17.49-17.37Q672,760.08,672,705.6ZM635.18,800q-35.2-.21-70.4,0c-3.56,0-4.91-.72-4.88-4.63q.27-35.45,0-70.89c0-3.94,1.35-4.67,4.89-4.61,11.81.19,23.63.07,35.45.07,11.65,0,23.3.13,35-.07,3.56-.06,4.9.72,4.87,4.63q-.27,35.44,0,70.89C640.1,799.35,638.71,800,635.18,800ZM493.89,688q-54,0-107.95,0c-11.58,0-17.88,6.36-17.9,18,0,18,0,36,0,54q0,26.75,0,53.48c0,12.3,6.17,18.53,18.37,18.53q53.73,0,107.45,0c11.91,0,18.14-6.27,18.15-18.23q0-53.73,0-107.45C512,694.28,505.76,688,493.89,688Zm-13.81,37c-.21,11.81-.08,23.63-.08,35.45,0,11.65-.09,23.3.07,34.94,0,3.26-.58,4.7-4.31,4.68q-35.68-.24-71.39,0c-3.59,0-4.43-1.18-4.41-4.57.12-23.63.15-47.26,0-70.89,0-3.85,1.21-4.7,4.83-4.67q35.19.23,70.4,0C479.22,719.83,480.15,721.16,480.08,725ZM291.46,712a48,48,0,1,0,47.68,48.21A48.25,48.25,0,0,0,291.46,712Zm.05,64a16,16,0,1,1-.32-32,16,16,0,0,1,.32,32Zm-.05-64a48,48,0,1,0,47.68,48.21A48.25,48.25,0,0,0,291.46,712Zm.05,64a16,16,0,1,1-.32-32,16,16,0,0,1,.32,32Zm202.38-88q-54,0-107.95,0c-11.58,0-17.88,6.36-17.9,18,0,18,0,36,0,54q0,26.75,0,53.48c0,12.3,6.17,18.53,18.37,18.53q53.73,0,107.45,0c11.91,0,18.14-6.27,18.15-18.23q0-53.73,0-107.45C512,694.28,505.76,688,493.89,688Zm-13.81,37c-.21,11.81-.08,23.63-.08,35.45,0,11.65-.09,23.3.07,34.94,0,3.26-.58,4.7-4.31,4.68q-35.68-.24-71.39,0c-3.59,0-4.43-1.18-4.41-4.57.12-23.63.15-47.26,0-70.89,0-3.85,1.21-4.7,4.83-4.67q35.19.23,70.4,0C479.22,719.83,480.15,721.16,480.08,725ZM672,705.6c0-11.22-6.46-17.62-17.75-17.63q-54.23,0-108.45,0c-11.29,0-17.74,6.4-17.75,17.62q-.06,54.23,0,108.46c0,11.55,6.39,17.86,18,17.88,17.82,0,35.65,0,53.47,0,18.33,0,36.65,0,55,0,11,0,17.48-6.47,17.49-17.37Q672,760.08,672,705.6ZM635.18,800q-35.2-.21-70.4,0c-3.56,0-4.91-.72-4.88-4.63q.27-35.45,0-70.89c0-3.94,1.35-4.67,4.89-4.61,11.81.19,23.63.07,35.45.07,11.65,0,23.3.13,35-.07,3.56-.06,4.9.72,4.87,4.63q-.27,35.44,0,70.89C640.1,799.35,638.71,800,635.18,800ZM813.8,688q-54,0-107.95,0C694.3,688,688,694.36,688,706c0,18,0,36,0,54q0,26.74,0,53.48c0,12.29,6.17,18.5,18.39,18.5q53.73,0,107.45,0c11.89,0,18.12-6.29,18.12-18.26q0-53.73,0-107.45C831.93,694.27,825.69,688,813.8,688ZM795.4,800q-35.46-.28-70.9,0c-3.94,0-4.63-1.37-4.61-4.9q.21-35.21,0-70.4c0-3.56.72-4.9,4.62-4.87q35.44.28,70.9,0c3.94,0,4.66,1.37,4.61,4.9-.19,11.81-.08,23.63-.07,35.45,0,11.65-.13,23.3.07,34.95C800.08,798.73,799.3,800.07,795.4,800ZM813.8,688q-54,0-107.95,0C694.3,688,688,694.36,688,706c0,18,0,36,0,54q0,26.74,0,53.48c0,12.29,6.17,18.5,18.39,18.5q53.73,0,107.45,0c11.89,0,18.12-6.29,18.12-18.26q0-53.73,0-107.45C831.93,694.27,825.69,688,813.8,688ZM795.4,800q-35.46-.28-70.9,0c-3.94,0-4.63-1.37-4.61-4.9q.21-35.21,0-70.4c0-3.56.72-4.9,4.62-4.87q35.44.28,70.9,0c3.94,0,4.66,1.37,4.61,4.9-.19,11.81-.08,23.63-.07,35.45,0,11.65-.13,23.3.07,34.95C800.08,798.73,799.3,800.07,795.4,800ZM672,705.6c0-11.22-6.46-17.62-17.75-17.63q-54.23,0-108.45,0c-11.29,0-17.74,6.4-17.75,17.62q-.06,54.23,0,108.46c0,11.55,6.39,17.86,18,17.88,17.82,0,35.65,0,53.47,0,18.33,0,36.65,0,55,0,11,0,17.48-6.47,17.49-17.37Q672,760.08,672,705.6ZM635.18,800q-35.2-.21-70.4,0c-3.56,0-4.91-.72-4.88-4.63q.27-35.45,0-70.89c0-3.94,1.35-4.67,4.89-4.61,11.81.19,23.63.07,35.45.07,11.65,0,23.3.13,35-.07,3.56-.06,4.9.72,4.87,4.63q-.27,35.44,0,70.89C640.1,799.35,638.71,800,635.18,800ZM493.89,688q-54,0-107.95,0c-11.58,0-17.88,6.36-17.9,18,0,18,0,36,0,54q0,26.75,0,53.48c0,12.3,6.17,18.53,18.37,18.53q53.73,0,107.45,0c11.91,0,18.14-6.27,18.15-18.23q0-53.73,0-107.45C512,694.28,505.76,688,493.89,688Zm-13.81,37c-.21,11.81-.08,23.63-.08,35.45,0,11.65-.09,23.3.07,34.94,0,3.26-.58,4.7-4.31,4.68q-35.68-.24-71.39,0c-3.59,0-4.43-1.18-4.41-4.57.12-23.63.15-47.26,0-70.89,0-3.85,1.21-4.7,4.83-4.67q35.19.23,70.4,0C479.22,719.83,480.15,721.16,480.08,725ZM291.46,712a48,48,0,1,0,47.68,48.21A48.25,48.25,0,0,0,291.46,712Zm.05,64a16,16,0,1,1-.32-32,16,16,0,0,1,.32,32Zm-.05-64a48,48,0,1,0,47.68,48.21A48.25,48.25,0,0,0,291.46,712Zm.05,64a16,16,0,1,1-.32-32,16,16,0,0,1,.32,32Zm202.38-88q-54,0-107.95,0c-11.58,0-17.88,6.36-17.9,18,0,18,0,36,0,54q0,26.75,0,53.48c0,12.3,6.17,18.53,18.37,18.53q53.73,0,107.45,0c11.91,0,18.14-6.27,18.15-18.23q0-53.73,0-107.45C512,694.28,505.76,688,493.89,688Zm-13.81,37c-.21,11.81-.08,23.63-.08,35.45,0,11.65-.09,23.3.07,34.94,0,3.26-.58,4.7-4.31,4.68q-35.68-.24-71.39,0c-3.59,0-4.43-1.18-4.41-4.57.12-23.63.15-47.26,0-70.89,0-3.85,1.21-4.7,4.83-4.67q35.19.23,70.4,0C479.22,719.83,480.15,721.16,480.08,725ZM672,705.6c0-11.22-6.46-17.62-17.75-17.63q-54.23,0-108.45,0c-11.29,0-17.74,6.4-17.75,17.62q-.06,54.23,0,108.46c0,11.55,6.39,17.86,18,17.88,17.82,0,35.65,0,53.47,0,18.33,0,36.65,0,55,0,11,0,17.48-6.47,17.49-17.37Q672,760.08,672,705.6ZM635.18,800q-35.2-.21-70.4,0c-3.56,0-4.91-.72-4.88-4.63q.27-35.45,0-70.89c0-3.94,1.35-4.67,4.89-4.61,11.81.19,23.63.07,35.45.07,11.65,0,23.3.13,35-.07,3.56-.06,4.9.72,4.87,4.63q-.27,35.44,0,70.89C640.1,799.35,638.71,800,635.18,800ZM813.8,688q-54,0-107.95,0C694.3,688,688,694.36,688,706c0,18,0,36,0,54q0,26.74,0,53.48c0,12.29,6.17,18.5,18.39,18.5q53.73,0,107.45,0c11.89,0,18.12-6.29,18.12-18.26q0-53.73,0-107.45C831.93,694.27,825.69,688,813.8,688ZM795.4,800q-35.46-.28-70.9,0c-3.94,0-4.63-1.37-4.61-4.9q.21-35.21,0-70.4c0-3.56.72-4.9,4.62-4.87q35.44.28,70.9,0c3.94,0,4.66,1.37,4.61,4.9-.19,11.81-.08,23.63-.07,35.45,0,11.65-.13,23.3.07,34.95C800.08,798.73,799.3,800.07,795.4,800ZM813.8,688q-54,0-107.95,0C694.3,688,688,694.36,688,706c0,18,0,36,0,54q0,26.74,0,53.48c0,12.29,6.17,18.5,18.39,18.5q53.73,0,107.45,0c11.89,0,18.12-6.29,18.12-18.26q0-53.73,0-107.45C831.93,694.27,825.69,688,813.8,688ZM795.4,800q-35.46-.28-70.9,0c-3.94,0-4.63-1.37-4.61-4.9q.21-35.21,0-70.4c0-3.56.72-4.9,4.62-4.87q35.44.28,70.9,0c3.94,0,4.66,1.37,4.61,4.9-.19,11.81-.08,23.63-.07,35.45,0,11.65-.13,23.3.07,34.95C800.08,798.73,799.3,800.07,795.4,800ZM672,705.6c0-11.22-6.46-17.62-17.75-17.63q-54.23,0-108.45,0c-11.29,0-17.74,6.4-17.75,17.62q-.06,54.23,0,108.46c0,11.55,6.39,17.86,18,17.88,17.82,0,35.65,0,53.47,0,18.33,0,36.65,0,55,0,11,0,17.48-6.47,17.49-17.37Q672,760.08,672,705.6ZM635.18,800q-35.2-.21-70.4,0c-3.56,0-4.91-.72-4.88-4.63q.27-35.45,0-70.89c0-3.94,1.35-4.67,4.89-4.61,11.81.19,23.63.07,35.45.07,11.65,0,23.3.13,35-.07,3.56-.06,4.9.72,4.87,4.63q-.27,35.44,0,70.89C640.1,799.35,638.71,800,635.18,800ZM493.89,688q-54,0-107.95,0c-11.58,0-17.88,6.36-17.9,18,0,18,0,36,0,54q0,26.75,0,53.48c0,12.3,6.17,18.53,18.37,18.53q53.73,0,107.45,0c11.91,0,18.14-6.27,18.15-18.23q0-53.73,0-107.45C512,694.28,505.76,688,493.89,688Zm-13.81,37c-.21,11.81-.08,23.63-.08,35.45,0,11.65-.09,23.3.07,34.94,0,3.26-.58,4.7-4.31,4.68q-35.68-.24-71.39,0c-3.59,0-4.43-1.18-4.41-4.57.12-23.63.15-47.26,0-70.89,0-3.85,1.21-4.7,4.83-4.67q35.19.23,70.4,0C479.22,719.83,480.15,721.16,480.08,725ZM291.46,712a48,48,0,1,0,47.68,48.21A48.25,48.25,0,0,0,291.46,712Zm.05,64a16,16,0,1,1-.32-32,16,16,0,0,1,.32,32Zm-.05-64a48,48,0,1,0,47.68,48.21A48.25,48.25,0,0,0,291.46,712Zm.05,64a16,16,0,1,1-.32-32,16,16,0,0,1,.32,32Zm202.38-88q-54,0-107.95,0c-11.58,0-17.88,6.36-17.9,18,0,18,0,36,0,54q0,26.75,0,53.48c0,12.3,6.17,18.53,18.37,18.53q53.73,0,107.45,0c11.91,0,18.14-6.27,18.15-18.23q0-53.73,0-107.45C512,694.28,505.76,688,493.89,688Zm-13.81,37c-.21,11.81-.08,23.63-.08,35.45,0,11.65-.09,23.3.07,34.94,0,3.26-.58,4.7-4.31,4.68q-35.68-.24-71.39,0c-3.59,0-4.43-1.18-4.41-4.57.12-23.63.15-47.26,0-70.89,0-3.85,1.21-4.7,4.83-4.67q35.19.23,70.4,0C479.22,719.83,480.15,721.16,480.08,725ZM672,705.6c0-11.22-6.46-17.62-17.75-17.63q-54.23,0-108.45,0c-11.29,0-17.74,6.4-17.75,17.62q-.06,54.23,0,108.46c0,11.55,6.39,17.86,18,17.88,17.82,0,35.65,0,53.47,0,18.33,0,36.65,0,55,0,11,0,17.48-6.47,17.49-17.37Q672,760.08,672,705.6ZM635.18,800q-35.2-.21-70.4,0c-3.56,0-4.91-.72-4.88-4.63q.27-35.45,0-70.89c0-3.94,1.35-4.67,4.89-4.61,11.81.19,23.63.07,35.45.07,11.65,0,23.3.13,35-.07,3.56-.06,4.9.72,4.87,4.63q-.27,35.44,0,70.89C640.1,799.35,638.71,800,635.18,800ZM813.8,688q-54,0-107.95,0C694.3,688,688,694.36,688,706c0,18,0,36,0,54q0,26.74,0,53.48c0,12.29,6.17,18.5,18.39,18.5q53.73,0,107.45,0c11.89,0,18.12-6.29,18.12-18.26q0-53.73,0-107.45C831.93,694.27,825.69,688,813.8,688ZM795.4,800q-35.46-.28-70.9,0c-3.94,0-4.63-1.37-4.61-4.9q.21-35.21,0-70.4c0-3.56.72-4.9,4.62-4.87q35.44.28,70.9,0c3.94,0,4.66,1.37,4.61,4.9-.19,11.81-.08,23.63-.07,35.45,0,11.65-.13,23.3.07,34.95C800.08,798.73,799.3,800.07,795.4,800ZM813.8,688q-54,0-107.95,0C694.3,688,688,694.36,688,706c0,18,0,36,0,54q0,26.74,0,53.48c0,12.29,6.17,18.5,18.39,18.5q53.73,0,107.45,0c11.89,0,18.12-6.29,18.12-18.26q0-53.73,0-107.45C831.93,694.27,825.69,688,813.8,688ZM795.4,800q-35.46-.28-70.9,0c-3.94,0-4.63-1.37-4.61-4.9q.21-35.21,0-70.4c0-3.56.72-4.9,4.62-4.87q35.44.28,70.9,0c3.94,0,4.66,1.37,4.61,4.9-.19,11.81-.08,23.63-.07,35.45,0,11.65-.13,23.3.07,34.95C800.08,798.73,799.3,800.07,795.4,800ZM672,705.6c0-11.22-6.46-17.62-17.75-17.63q-54.23,0-108.45,0c-11.29,0-17.74,6.4-17.75,17.62q-.06,54.23,0,108.46c0,11.55,6.39,17.86,18,17.88,17.82,0,35.65,0,53.47,0,18.33,0,36.65,0,55,0,11,0,17.48-6.47,17.49-17.37Q672,760.08,672,705.6ZM635.18,800q-35.2-.21-70.4,0c-3.56,0-4.91-.72-4.88-4.63q.27-35.45,0-70.89c0-3.94,1.35-4.67,4.89-4.61,11.81.19,23.63.07,35.45.07,11.65,0,23.3.13,35-.07,3.56-.06,4.9.72,4.87,4.63q-.27,35.44,0,70.89C640.1,799.35,638.71,800,635.18,800ZM493.89,688q-54,0-107.95,0c-11.58,0-17.88,6.36-17.9,18,0,18,0,36,0,54q0,26.75,0,53.48c0,12.3,6.17,18.53,18.37,18.53q53.73,0,107.45,0c11.91,0,18.14-6.27,18.15-18.23q0-53.73,0-107.45C512,694.28,505.76,688,493.89,688Zm-13.81,37c-.21,11.81-.08,23.63-.08,35.45,0,11.65-.09,23.3.07,34.94,0,3.26-.58,4.7-4.31,4.68q-35.68-.24-71.39,0c-3.59,0-4.43-1.18-4.41-4.57.12-23.63.15-47.26,0-70.89,0-3.85,1.21-4.7,4.83-4.67q35.19.23,70.4,0C479.22,719.83,480.15,721.16,480.08,725ZM291.46,712a48,48,0,1,0,47.68,48.21A48.25,48.25,0,0,0,291.46,712Zm.05,64a16,16,0,1,1-.32-32,16,16,0,0,1,.32,32Z"/><path class="cls-1" d="M493.89,688q-54,0-107.95,0c-11.58,0-17.88,6.36-17.9,18,0,18,0,36,0,54q0,26.75,0,53.48c0,12.3,6.17,18.53,18.37,18.53q53.73,0,107.45,0c11.91,0,18.14-6.27,18.15-18.23q0-53.73,0-107.45C512,694.28,505.76,688,493.89,688Zm-13.81,37c-.21,11.81-.08,23.63-.08,35.45,0,11.65-.09,23.3.07,34.94,0,3.26-.58,4.7-4.31,4.68q-35.68-.24-71.39,0c-3.59,0-4.43-1.18-4.41-4.57.12-23.63.15-47.26,0-70.89,0-3.85,1.21-4.7,4.83-4.67q35.19.23,70.4,0C479.22,719.83,480.15,721.16,480.08,725Z"/><path class="cls-1" d="M672,705.6c0-11.22-6.46-17.62-17.75-17.63q-54.23,0-108.45,0c-11.29,0-17.74,6.4-17.75,17.62q-.06,54.23,0,108.46c0,11.55,6.39,17.86,18,17.88,17.82,0,35.65,0,53.47,0,18.33,0,36.65,0,55,0,11,0,17.48-6.47,17.49-17.37Q672,760.08,672,705.6ZM635.18,800q-35.2-.21-70.4,0c-3.56,0-4.91-.72-4.88-4.63q.27-35.45,0-70.89c0-3.94,1.35-4.67,4.89-4.61,11.81.19,23.63.07,35.45.07,11.65,0,23.3.13,35-.07,3.56-.06,4.9.72,4.87,4.63q-.27,35.44,0,70.89C640.1,799.35,638.71,800,635.18,800Z"/><path class="cls-1" d="M813.8,688q-54,0-107.95,0C694.3,688,688,694.36,688,706c0,18,0,36,0,54q0,26.74,0,53.48c0,12.29,6.17,18.5,18.39,18.5q53.73,0,107.45,0c11.89,0,18.12-6.29,18.12-18.26q0-53.73,0-107.45C831.93,694.27,825.69,688,813.8,688ZM795.4,800q-35.46-.28-70.9,0c-3.94,0-4.63-1.37-4.61-4.9q.21-35.21,0-70.4c0-3.56.72-4.9,4.62-4.87q35.44.28,70.9,0c3.94,0,4.66,1.37,4.61,4.9-.19,11.81-.08,23.63-.07,35.45,0,11.65-.13,23.3.07,34.95C800.08,798.73,799.3,800.07,795.4,800Z"/><path class="cls-1" d="M291.46,712a48,48,0,1,0,47.68,48.21A48.25,48.25,0,0,0,291.46,712Zm.05,64a16,16,0,1,1-.32-32,16,16,0,0,1,.32,32Z"/></svg>