<svg id="Слой_1" data-name="Слой 1" xmlns="http://www.w3.org/2000/svg" viewBox="0 0 1024 1024"><defs><style>.cls-1{fill:#c03738;}</style></defs><path class="cls-1" d="M348.1,839.63c-35,0-69.93,0-104.89-.07-3.21,0-4.26.62-4.23,4.09.18,21.31.13,42.64.07,64a13.51,13.51,0,0,1-9.94,13.32,13.33,13.33,0,0,1-14.94-5.46,13.68,13.68,0,0,1-2.4-8c0-26.3-.06-52.59,0-78.89,0-10.37,6.19-16.19,16.48-16.28,3.5,0,8.13,1.59,10.17-.7,1.72-1.92.58-6.46.6-9.84q.06-13.65,0-27.29a18.82,18.82,0,0,1,3-10.48c2.65-4.11,6.27-6.32,11.34-6.27q17.7.18,35.39,0c1.58,0,4.41,1.38,4.65-1.1.27-2.78,1.53-6-1.76-8.54-15.86-12.23-31.57-24.67-47.33-37-13.53-10.6-27.19-21-40.58-31.82-16.52-13.28-29.41-29.32-37.78-49.06-20.13-47.51-40.64-94.85-61.08-142.23a28.1,28.1,0,0,1-2.35-11.53c.07-41.65.2-83.29,0-124.94-.07-11,4.46-19.07,13-25.33,22.58-16.52,53.48-12.48,71.56,9.34,10.76,13,15.42,28.54,18.64,44.68a339.33,339.33,0,0,1,5.56,47.77c.45,8-5,14.68-12.27,15.26-8.3.66-14.08-4.07-14.78-12.8-1.45-18.13-2.83-36.24-7.36-53.94-2.13-8.3-5-16.3-10.35-23.12-8.53-10.78-22.65-13.16-33.9-5.86a5.91,5.91,0,0,0-3.1,5.52q.28,61,.35,122A11,11,0,0,0,131,479.4q30.42,70.7,60.8,141.41c6.54,15.33,16.89,27.5,29.79,37.66,29.8,23.46,59.56,47,89.65,70.06,7.18,5.51,10.52,11.56,9.89,20.59-.6,8.61-.12,8.63,8.33,8.63H467.58c10.49,0,17.12,6.66,17.12,17.35q0,51.81,0,103.62c0,9.38,0,18.76,0,28.14,0,8.38-5.69,14.52-13.4,14.63-7.93.11-13.86-6-13.88-14.58,0-20.89-.09-41.79.08-62.68,0-3.53-.55-4.72-4.5-4.7C418,839.72,383.07,839.63,348.1,839.63Zm13.78-54.58c-30.54,0-61.09.05-91.63-.08-3.16,0-4.25.7-3.95,3.94s0,6.81.07,10.22c.05,4.24-1.49,10,.66,12.33,2.45,2.74,8.26.83,12.6.84q87,.08,173.9.11c3.14,0,4.11-.67,4-3.92-.29-6.52-.29-13.07,0-19.6.14-3.25-.84-3.94-4-3.92C423,785.09,392.43,785,361.88,785.05Z"/><path class="cls-1" d="M675.7,839.63c-35,0-69.92.07-104.88-.09-3.65,0-4.35,1-4.32,4.43.18,20.75.1,41.5.08,62.25,0,9-5.57,15.23-13.63,15.25s-13.66-6.19-13.66-15.2q0-65.46,0-130.9c0-11.2,6.48-17.62,17.69-17.62q71,0,142,.08c3.32,0,4.21-.8,4.16-4.15-.27-18.18-1-16.58,13.55-28q42.83-33.45,85.54-67c13.6-10.71,24.09-23.74,30.93-39.92,19.61-46.33,39.66-92.47,59.58-138.67a16.1,16.1,0,0,0,1.4-6.55q-.06-60.54.06-121.09c0-3.39-1-5-4.07-6.32-14.65-6.21-27.25-2.32-35.52,11.3-6.47,10.66-8.63,22.72-10.75,34.73a245.28,245.28,0,0,0-3.56,33.87c-.11,3-.87,4.2-4.16,4.17-7-.06-13.92-.05-20.86-.74-1.47-.14-2.67,0-2.52-2.24,1.62-24.11,3.59-48.2,12.3-71,6.4-16.8,16.78-30.36,34.3-36.81,18.06-6.66,35-3.59,50.32,7.69,8,5.89,11.87,13.91,11.81,24.2-.22,41.92-.11,83.85-.05,125.78a26.11,26.11,0,0,1-2.25,10.7q-31.56,73.2-63,146.45c-8.08,18.69-21.24,33.47-37.06,45.95q-42.66,33.63-85.6,66.93c-3.63,2.8-3.19,5.9-3.08,9.3.08,2.38,2.16,1.3,3.31,1.31,11.66.08,23.31,0,35,0,10,0,16.08,5.89,16.22,16.07.15,10.94,0,21.89,0,32.83,0,5.67,0,5.67,5.45,5.68h4.69c11.32,0,17.11,5.79,17.14,17.3q.06,31.35,0,62.68c0,4.83,0,9.67,0,14.5-.06,8.56-5.9,14.76-13.79,14.68-7.7-.07-13.47-6.2-13.49-14.53,0-21.17-.1-42.35.07-63.53,0-3.28-.9-3.9-4-3.89C745.91,839.67,710.81,839.63,675.7,839.63Zm-13.57-27.29q40.71,0,81.41,0c4.53,0,10.61,1.6,13.17-.68,2.92-2.6.76-8.79.88-13.42.12-4.23,1.51-10-.63-12.32-2.46-2.72-8.27-.83-12.62-.83Q657.4,785,570.45,785c-3.18,0-4.09.73-4,3.94.28,6.53.29,13.08,0,19.6-.15,3.29.89,3.92,4,3.91C601,812.29,631.59,812.33,662.13,812.34Z"/><path class="cls-1" d="M523.33,271.39l-81.8,130.86c1.13,1.26,2.48.66,3.63.66,17.2,0,34.4,0,51.6,0,10.82,0,16.76,7.26,14.64,17.84q-5.55,27.75-11.09,55.51c-.22,1.1-.26,2.23-.4,3.56,2.08-.94,2.58-2.85,3.51-4.33q45.73-73.08,91.39-146.21c4.09-6.55,9.52-9.32,15.49-8,9.53,2.13,13.76,12.45,8.44,21.1-9,14.63-18.17,29.15-27.27,43.71q-53.82,86.12-107.59,172.24c-3.46,5.55-7.88,9-14.63,8.18-7.92-.95-13.15-8.37-11.55-16.44q8.54-43,17.22-86c2-10.15,4-20.31,6.19-30.44.61-2.85-.12-3.55-3-3.53-19.75.13-39.51,0-59.27.12-6.15,0-11.24-1.62-14.33-7.26s-1.61-10.51,1.57-15.59q67.2-107.35,134.26-214.79c4.44-7.1,11-9.68,17.65-7.05s9.55,8.88,7.89,17.24q-13.29,66.79-26.63,133.56c-1.68,8.43-8.68,13.4-16.37,11.71s-12.05-8.88-10.36-17.28q5.63-27.94,11.19-55.92a31.53,31.53,0,0,0,.32-3.23Z"/><path class="cls-1" d="M484.7,705.31c0,4.36.06,7.77,0,11.18-.15,8-6,14-13.62,14a13.58,13.58,0,0,1-13.62-14c.15-15-.05-29.86-4.3-44.35-13-44.35-41.78-73.78-85.66-87.66a48.41,48.41,0,0,1-20.83-12.64q-28.83-29.05-58.05-57.72c-9.83-9.6-20.95-17.4-34.5-21.09-12.93-3.52-25-1.45-36.39,5.34-2.69,1.6-2.4,2.49-.41,4.46q40.65,40.44,81.19,81,12.36,12.36,24.73,24.71c6,6,6.3,14.61.78,20.14s-14,5.15-20.11-.93q-59-58.87-118-117.8c-6.62-6.61-6.63-14.52,0-21,14.11-13.73,30.27-23.37,50.41-24.95,19.3-1.51,36.29,4.92,52.14,15.16a143.13,143.13,0,0,1,23.32,19.21q27.46,27.39,54.89,54.84a17.13,17.13,0,0,0,7.12,4.28c59.89,19.78,96.61,60.27,109,122.41.53,2.64.78,5.34,1.05,8A133.54,133.54,0,0,1,484.7,705.31Z"/><path class="cls-1" d="M809,500.3c-17.67-12-35.21-11.33-53-1.66-9.57,5.22-17.72,12.28-25.39,19.93q-29.43,29.34-58.83,58.73a22.18,22.18,0,0,1-11.33,6.08c-20.5,4.79-38.24,15-53.5,29.29-26.65,25-40.11,55.86-40.36,92.44,0,4.12.13,8.25-.06,12.36a13.62,13.62,0,0,1-27.2.17c-1.73-36.39,6.18-70.21,27.43-100.3,21-29.72,49.15-49.53,83.94-60a13.85,13.85,0,0,0,6.06-3.64q27.4-27.45,54.9-54.83c13.51-13.47,28.43-25,46.76-31C788.2,458,813.67,466.44,836,487c9.28,8.55,9.3,15.76.45,24.6Q778.66,569.28,720.9,627c-3.23,3.23-6.65,5.71-11.47,5.58-5.66-.15-9.92-2.68-12.19-7.8a13.19,13.19,0,0,1,2-14.73c.91-1.08,2-2,3-3l105-104.84C807.74,501.65,808.21,501.12,809,500.3Z"/><path class="cls-1" d="M784.93,375.26c-.06,8.11-6,14.14-13.89,14s-13.52-6.3-13.4-14.48A13.6,13.6,0,0,1,771.3,361C779.12,361,785,367.15,784.93,375.26Z"/><path class="cls-1" d="M734.7,222.34a13.53,13.53,0,0,1-13.64,13.79,13.74,13.74,0,0,1-13.5-13.57c.1-7.57,6.05-13.73,13.33-13.79A13.39,13.39,0,0,1,734.7,222.34Z"/><path class="cls-1" d="M395.32,151.38a13.61,13.61,0,0,1-27.21.52c-.08-7.65,6-14.13,13.42-14.2A13.59,13.59,0,0,1,395.32,151.38Z"/><path class="cls-1" d="M252.57,362.65a13.37,13.37,0,0,1,13.79,13.58,13.65,13.65,0,1,1-27.29-.14A13.36,13.36,0,0,1,252.57,362.65Z"/><path class="cls-1" d="M524.78,117.67a13.27,13.27,0,0,1,13.3-13.61,13.65,13.65,0,1,1-13.3,13.61Z"/><path class="cls-1" d="M779.06,320.38a13.64,13.64,0,1,1-27.28.24,13.68,13.68,0,0,1,13.6-13.46A13.3,13.3,0,0,1,779.06,320.38Z"/><path class="cls-1" d="M324.36,183.41a13.5,13.5,0,0,1,13.51-13.48c7.91-.06,13.81,5.74,13.78,13.55a13.9,13.9,0,0,1-13.92,13.71C330.51,197.16,324.37,190.83,324.36,183.41Z"/><path class="cls-1" d="M684.75,196a13.63,13.63,0,1,1,13.67-13.42A13.64,13.64,0,0,1,684.75,196Z"/><path class="cls-1" d="M288.24,223.57a13.66,13.66,0,0,1,27.31.12A13.89,13.89,0,0,1,302,237.32,13.55,13.55,0,0,1,288.24,223.57Z"/><path class="cls-1" d="M444.7,129.49a13.33,13.33,0,0,1-13.58,13.32,13.64,13.64,0,0,1-13.67-13.39,13.85,13.85,0,0,1,13.75-13.83C438.86,115.56,444.74,121.62,444.7,129.49Z"/><path class="cls-1" d="M654.44,150.71a13.63,13.63,0,0,1-27.25,0,14.19,14.19,0,0,1,13.91-13.85A13.68,13.68,0,0,1,654.44,150.71Z"/><path class="cls-1" d="M590.73,142.17a13.52,13.52,0,0,1,.95-27A13.64,13.64,0,0,1,605,129,13.45,13.45,0,0,1,590.73,142.17Z"/><path class="cls-1" d="M762.08,269.41a13.38,13.38,0,0,1-13.59,13.36c-7.64-.09-13.75-6.13-13.61-13.44a14,14,0,0,1,13.93-13.78A13.7,13.7,0,0,1,762.08,269.41Z"/><path class="cls-1" d="M261.21,270.41A13.51,13.51,0,0,1,275,257.14a13.81,13.81,0,0,1,13.52,13.68,14,14,0,0,1-13.61,13.62C267.47,284.44,261.25,278.07,261.21,270.41Z"/><path class="cls-1" d="M258.24,416.44c7.66.08,14,6.32,13.94,13.73-.06,7.13-6.75,13.67-13.8,13.49a13.67,13.67,0,0,1-13.52-13.6A13.48,13.48,0,0,1,258.24,416.44Z"/><path class="cls-1" d="M497.58,118.06a13.22,13.22,0,0,1-13.1,13.37,14,14,0,0,1-14.1-13.57,13.64,13.64,0,0,1,13.56-13.5C491.8,104.32,497.55,110.09,497.58,118.06Z"/><path class="cls-1" d="M258.14,335.72a13.48,13.48,0,1,1,13.67-13.32A13.51,13.51,0,0,1,258.14,335.72Z"/><path class="cls-1" d="M779.16,429.5A13.47,13.47,0,0,1,765.26,443a13.16,13.16,0,0,1-13.08-13.4,13.49,13.49,0,1,1,27-.14Z"/></svg>