<svg id="Слой_1" data-name="Слой 1" xmlns="http://www.w3.org/2000/svg" viewBox="0 0 1024 1024"><defs><style>.cls-1{fill:#c03738;}</style></defs><path class="cls-1" d="M512,493.21c12.55,1.38,18.67,8.17,18.67,20.85q0,153.5,0,307c0,17.18,6.87,30.57,21.72,39.51,7,4.24,14.83,5.87,23,5.87q76.37,0,152.73,0c31.61,0,63.22.11,94.83-.06,20.72-.1,37.57-13.63,42.29-33.47a54.42,54.42,0,0,0,1.2-12.73q0-230.46,0-460.91,0-78.7,0-157.4c0-19.42-11.08-35.41-28.59-41.7a44.88,44.88,0,0,0-15.24-2.6q-124,0-247.94,0c-25.16,0-43.84,18.92-44,44.16-.09,19.82,0,39.64,0,59.46,0,12.68-6.1,19.44-18.67,20.84-12.49-1.37-18.64-8.26-18.64-20.87q0-29.52,0-59.06c0-40.72,27.41-73.52,67.41-80.75a80.48,80.48,0,0,1,14.31-1.14q123.57,0,247.14,0c45.75,0,81.5,35.54,81.51,81.25q.1,310.49,0,621c0,45.54-35.6,81.14-81.14,81.21q-124,.19-247.93,0c-45.89-.06-81.3-35.89-81.3-81.87V514.08C493.36,501.46,499.48,494.61,512,493.21Z"/><path class="cls-1" d="M815.26,369.49c-10.06-68.27-78.9-113.88-145.58-96.33-31.84,8.39-56.13,27-73.07,55.19-1.06,1.76-1.82,3.41-4.56,3.4-26.68-.16-53.37-.16-80-.2-1.68,0-3.36.13-5,.13q-164.79,0-329.56,0a59.42,59.42,0,0,0-18.73,2.81c-26.34,8.63-41.82,34.43-37.6,62.64,3.93,26.26,27.52,46.44,54.78,46.46q123.77.12,247.55.05,44.3,0,88.6.12c26.17-.05,52.33,0,78.5-.2,3.13,0,4.79,1,6.37,3.7,24.37,41.38,70.57,64,117.07,57.56C780.25,495.55,825,435.76,815.26,369.49Zm-103,97.8c-35.52,6.57-71.78-12.64-86.95-46.24-3.2-7.09-7.23-12.91-15.43-14.37a35.44,35.44,0,0,0-6.19-.37q-106.1,0-212.18,0-107.05,0-214.12,0c-13.85,0-22.77-11.35-19-24.12C160.78,374,167.8,369,177.28,369q48.38,0,96.76,0,165.16,0,330.33,0c10.08,0,16.46-4.84,20.45-13.75,8.79-19.67,23.08-33.84,42.92-42.3,48.7-20.75,105.29,12.29,111,64.78C783.49,421.54,755.47,459.31,712.3,467.29Z"/><path class="cls-1" d="M717.21,698.55c0,20.72.07,41.44,0,62.15,0,7.45-3.27,13.33-10.1,16.65s-13.62,2.79-19.82-1.72c-5.47-4-7.38-9.69-7.37-16.3q.07-56.9,0-113.81c0-2.72,0-5.44,0-8.16.08-11.51,7.71-19.59,18.57-19.64s18.7,8,18.73,19.45C717.25,657.63,717.21,678.09,717.21,698.55Z"/></svg>