<svg id="Слой_1" data-name="Слой 1" xmlns="http://www.w3.org/2000/svg" viewBox="0 0 1024 1024"><defs><style>.cls-1{fill:#c03738;}</style></defs><path class="cls-1" d="M192.06,560q0-158.72,0-317.42c0-47.46,34.94-82.45,82.3-82.5q54.24,0,108.48,0c13.35,0,21.38,12.82,15,23.82-3.41,5.9-8.78,8.19-15.5,8.18q-55-.1-110,0A48.13,48.13,0,0,0,225.63,228a50.11,50.11,0,0,0-1.6,12.85q0,319.42,0,638.85c0,27.27,21.49,48.23,49.34,48.24q228.71.06,457.4,0c10,0,20,1,29.92-.85,22.11-4,38.95-23.61,39.14-46.09.23-26.66,0-53.32.1-80,0-12.24,11-20.17,21.73-15.86,6.31,2.52,10.09,7.4,10.13,14.17.14,28.82,1.1,57.7-.32,86.46-2.06,42-37.85,74.14-80.73,74.16q-197.21.09-394.41,0c-27.49,0-55,.05-82.48,0-46.79-.1-81.81-35.19-81.82-82Q192,719,192.06,560Z"/><path class="cls-1" d="M831.93,437.64q0,99.48,0,198.94a37.17,37.17,0,0,1-.24,6,16,16,0,0,1-16.75,13.37c-8.49-.55-14.91-7.39-15-16.37-.1-20.5,0-41,0-61.49q0-167.45,0-334.89c0-31-20.32-51.13-51.48-51.12q-53.75,0-107.47,0c-12.24,0-20.17-10.94-15.86-21.7,2.61-6.51,7.68-10.17,14.66-10.19,39-.09,78-.8,117,.26,41.39,1.12,75,37.25,75.13,79.31C832.07,305.68,831.93,371.66,831.93,437.64Z"/><path class="cls-1" d="M608,146.51c0-19.82-9.51-31.11-29-34.26-2.33-.38-3.11-1.11-3.06-3.38.09-4.83.15-9.67-.05-14.49-.69-16.82-13.25-29.84-30-30.14-22.65-.41-45.31-.37-67.95,0-14.65.23-26.13,10.49-29.19,24.87-1.37,6.44-.57,13-.7,19.43,0,2.41-.63,3.37-3.27,3.73C425.94,114.83,416,126.34,416,145.43q0,22.48,0,45c.06,20.8,12.86,33.59,33.72,33.64,20.65.05,41.3,0,62,0q31.23,0,62.45,0C595,224,607.93,211.2,608,190.48Q608,168.49,608,146.51ZM491.61,96.08h20.45c9.3,0,18.61.09,27.92,0,2.92,0,4,.72,4.09,3.87.29,12.19.41,12.18-11.68,12.17-16,0-31.92-.08-47.87.07-3.35,0-4.6-.75-4.6-4.37C479.91,96.08,479.76,96.08,491.61,96.08Zm84.44,91.76c0,3.2-.84,4.29-4.17,4.28Q512,192,452,192.1c-2.91,0-4.11-.7-4.08-3.87.15-13.48.21-27,0-40.45-.07-3.94,2.05-3.73,4.69-3.73q29.72.06,59.43,0c19.8,0,39.61.07,59.42-.07,3.36,0,4.65.78,4.59,4.4C575.86,161.54,575.89,174.7,576.05,187.84Z"/><path class="cls-1" d="M543.49,737.69c4.7-.12,8.68,2.95,12.45,6.73q50.31,50.42,100.62,100.82c3.38,3.41,5,3.48,8.45,0q95.79-96.13,191.8-192c4.6-4.61,9.52-7.79,16.35-6.53a15.83,15.83,0,0,1,10.17,24.81,37.27,37.27,0,0,1-4.34,4.81Q776.86,778.51,674.71,880.63c-9.87,9.87-18,9.86-27.84,0Q589.94,823.71,533,766.83c-4.64-4.63-7.59-9.65-6.2-16.44C528.37,742.8,534.78,737.61,543.49,737.69Z"/><path class="cls-1" d="M576.15,416q-55.49,0-110.95,0c-12.72,0-20.74-11.5-15.72-22.47,3.11-6.82,8.79-9.54,16.15-9.53q56,.09,112,0c36.48,0,73,0,109.45,0,12.41,0,20.35,11.4,15.57,22.22-3,6.84-8.62,9.76-16,9.75q-42.74-.06-85.46,0Z"/><path class="cls-1" d="M576,496q55.47,0,111,0c12.44,0,20.44,11.35,15.71,22.15-3,6.83-8.55,9.84-15.95,9.83q-37-.06-74,0Q539,528,465.3,528c-12.77,0-20.84-11.42-15.86-22.37,3.09-6.8,8.72-9.63,16.1-9.62q51,.07,101.95,0Z"/><path class="cls-1" d="M575.74,640q-55.22,0-110.45,0c-12.52,0-20.5-11-16.1-21.94,2.59-6.42,8.33-10,16.35-10q53.73,0,107.45,0,57,0,114,0c12.44,0,20.43,11.31,15.7,22.15-3.08,7.06-8.88,9.86-16.45,9.84Q631,639.9,575.74,640Z"/><path class="cls-1" d="M351.79,539.08A32,32,0,1,1,384,507.18,32,32,0,0,1,351.79,539.08Z"/><path class="cls-1" d="M352,651.06a32,32,0,1,1,0-63.92c17.26,0,31.91,14.53,32,31.78A32,32,0,0,1,352,651.06Z"/><path class="cls-1" d="M352,427.12a32,32,0,1,1,0-63.93c17.48,0,32.13,14.77,32,32.29A32,32,0,0,1,352,427.12Z"/></svg>