<svg id="Слой_1" data-name="Слой 1" xmlns="http://www.w3.org/2000/svg" viewBox="0 0 1024 1024"><defs><style>.cls-1{fill:#c03738;}</style></defs><path class="cls-1" d="M447.83,430.59q0,97,0,194a9.87,9.87,0,0,0,3.1,7.87c38.95,38.65,53.65,85.19,40.21,138.34-13.61,53.84-48.73,89.29-102.39,103.94-83.94,22.91-168.88-34.73-179.31-121-5.63-46.5,9.55-86.25,42.25-119.41a14.55,14.55,0,0,0,4.6-11.3q-.17-189-.17-377.91c-.05-29.09,8.22-54.72,29.86-74.62,28.33-26,61.72-33,97.88-20.68,35.67,12.18,56.18,38.46,62.8,75.45a102,102,0,0,1,1.16,17.92Q447.9,336.87,447.83,430.59Zm-160,5c0,65.49-.09,131,.11,196.47,0,8.15-2.63,14-8.73,19.56-30.12,27.23-44.13,61-38,101.61,9.34,62.31,69.2,104.93,131.12,92.81,45.84-9,76.2-37.09,88-82.13,11.63-44.55-1.67-82.83-36.38-113.26-5.34-4.68-7.81-9.86-7.79-16.9q.18-76,.06-152,0-121.49-.05-243c-.09-39.17-35.4-68.67-74-62.25-32.65,5.43-54.29,30.89-54.3,64.06Q287.79,338.13,287.84,435.61Z"/><path class="cls-1" d="M549.87,302c-25.74.38-45,3-63.75,8.67-9.59,2.91-17.91-1-20.9-9.25-3.16-8.74,1.12-18.18,10.59-20.36,16.66-3.83,33.43-8.19,50.38-9.54,51.29-4.08,99,7.88,141.81,36.75,53.42,36,86.9,85.85,97.82,149.52C783.68,562,727.78,663,630.65,703.9a219.86,219.86,0,0,1-85.55,17.36c-9.63,0-16.68-6.38-16.91-15.32s6.62-15.79,16.23-16c45.17-.82,85.77-14.68,120.83-43.28,40.34-32.92,64.59-75.28,70.92-127.15,12.23-100.15-54.79-193.36-153.28-213.32C570.06,303.62,556.85,302.85,549.87,302Z"/><path class="cls-1" d="M807.14,250.08c-2,3.68-3.24,8-6,10.92-19.34,19.77-39,39.27-58.6,58.74-6.55,6.49-16.16,6.4-22.41.21s-6.36-15.83.16-22.41q29.37-29.66,59-59c5-5,11.13-5.95,17.52-3.21C802.84,237.89,805.87,242.84,807.14,250.08Z"/><path class="cls-1" d="M807.11,741.69C806,748.93,803,753.91,797,756.61s-12.14,2-17.19-2.63c-4.42-4-8.54-8.41-12.78-12.65q-23.16-23.15-46.3-46.3c-4.77-4.76-6.62-10.4-4.41-16.87,2.06-6,6.49-9.56,12.8-10.53a14.81,14.81,0,0,1,13.21,4.45c19.72,19.63,39.47,39.22,58.94,59.09C804,733.93,805.2,738.15,807.11,741.69Z"/><path class="cls-1" d="M528.17,183.75q0-18.72,0-37.44c0-10.73,6.38-18,15.71-18.13s15.93,7.26,15.94,17.88q0,38.44,0,76.88c0,7.58-3.81,13.33-10.09,15.75s-13.36,1.12-17.16-4.21a23.12,23.12,0,0,1-4.2-11.8C527.84,209.72,528.17,196.73,528.17,183.75Z"/><path class="cls-1" d="M856,511.83c-12.81,0-25.62,0-38.43,0-10.17,0-17.48-6.8-17.39-15.94s7.24-15.67,17.13-15.69q38.69-.09,77.38,0c9.91,0,17,6.65,17.12,15.68.09,9.19-7.16,15.91-17.37,15.95C881.63,511.87,868.82,511.83,856,511.83Z"/><path class="cls-1" d="M559.83,808.26c0,12.65,0,25.3,0,37.94,0,10.32-6.52,17.54-15.71,17.62s-15.91-7.23-15.93-17.4q-.06-38.19,0-76.37c0-10.6,6.65-18,16-17.87s15.67,7.38,15.69,18.15Q559.86,789.29,559.83,808.26Z"/><path class="cls-1" d="M367.84,479.41q0,94.74-.1,189.49c0,4,1.18,5.66,5,7,27.14,9.37,44.79,35.62,43.07,63.56a64.21,64.21,0,0,1-51.07,59.08C329.27,806.13,293.9,781.13,289,745c-4.16-30.67,12.91-58.86,42.21-69,4.21-1.46,5-3.48,5-7.46q-.14-188.25-.07-376.48c0-12.42,6.13-20,16-19.85s15.64,7.51,15.64,19.74ZM380,719.83c-7.79-11.24-17.47-16.69-30.18-15.89-11,.69-19.29,6-25.71,15.89ZM324,752c7.73,11.52,17.6,16.87,30.42,16,10.9-.74,19.17-6.1,25.5-16Z"/></svg>