<svg id="Слой_1" data-name="Слой 1" xmlns="http://www.w3.org/2000/svg" viewBox="0 0 1024 1024"><defs><style>.cls-1{fill:#c03738;}</style></defs><path class="cls-1" d="M480,299.54c-11.5,14.12-22.19,27.22-32.86,40.34-18.6,22.87-37.25,45.71-55.74,68.66a19,19,0,0,1-16,7.54Q287.2,415.93,199,416a55.7,55.7,0,0,0-32,9.48c-4.7,3.17-7,7.25-7,13.35q.31,73,0,146A14,14,0,0,0,166,597.09,53.57,53.57,0,0,0,198.56,608q84,0,167.94,0c12.61,0,20.56,10.64,16.47,21.71-1.7,4.59-8.15,10.35-14.5,10.34-58.14-.14-116.3.55-174.42-.45-23.76-.4-44.77-9.72-59.39-29.88a35.11,35.11,0,0,1-6.59-21.09c0-51.15-.17-102.3.07-153.45.09-19.12,11.55-31.27,27.17-40.07A87.15,87.15,0,0,1,198.82,384c55.32,0,110.63,0,165.94.12,3.95,0,6.33-1.32,8.71-4.26Q428.06,312.53,482.8,245.3c4.52-5.56,10.14-8,17.18-6.25,6.2,1.55,10,5.73,11.54,11.87a25.12,25.12,0,0,1,.43,6q0,118.47,0,236.93c0,11-6.52,18.29-16.16,18.19-9.4-.09-15.83-7.36-15.83-18q0-94,0-187.94Z"/><path class="cls-1" d="M209.76,840.51c-.13-4.54,2.7-8.46,6.37-12.13Q286.44,758,356.65,687.59q253.61-254.25,507.2-508.52c1.76-1.77,3.47-3.61,5.35-5.24a16,16,0,0,1,21.77.35c6.21,6,6.58,15.3.84,22.1-1,1.14-2.06,2.18-3.12,3.24Q564.3,524.71,239.93,849.92c-4.93,4.94-10,8.82-17.5,7.22S209.71,849.21,209.76,840.51Z"/><path class="cls-1" d="M894.3,525.07c-2.62,86.7-42.18,168-122,229.15-6.38,4.88-13.06,5.38-19,1.78-5.77-3.46-8.56-9.76-7.38-16.72.87-5.14,4.23-8.42,8.22-11.4a263.36,263.36,0,0,0,75.95-88.22q40.35-75.58,30.05-160.72-9.47-77.82-59.54-138.22c-.95-1.16-1.93-2.3-2.86-3.47-6-7.63-5.33-17.4,1.69-23.17s16.37-4.75,22.7,2.51a281.35,281.35,0,0,1,30.58,42.5C880.27,406.24,894,457.18,894.3,525.07Z"/><path class="cls-1" d="M776.13,512.33c-2.76,67.68-32,120.23-89.73,156.46-8.89,5.58-18.64,3.42-23.44-4.73s-2-17.15,6.83-22.59c41.06-25.42,65.76-62,72.7-109.72,5.38-37-3.64-71.3-23.26-102.92-2.6-4.18-4.83-8.39-4-13.52a16.28,16.28,0,0,1,12.06-13.23,15.7,15.7,0,0,1,17.3,7.08,193,193,0,0,1,25.15,56.18A190.18,190.18,0,0,1,776.13,512.33Z"/><path class="cls-1" d="M480,725v-6.28q0-38.49,0-77c0-10.48,6.7-17.8,16.13-17.72S512,631.21,512,641.48q0,63.24,0,126.47c0,8.22-3.74,14.09-10.4,16.56-7,2.6-13.5.56-19-6.07Q457.27,747.83,432,717.16c-6.82-8.3-6.36-17.79,1-23.92,7.19-6,17-4.47,23.7,3.63C464.19,705.84,471.6,714.84,480,725Z"/><path class="cls-1" d="M670.25,511.71c.58,41.49-34,76.84-75.48,77.13-9.73.07-16.92-6.52-17.09-15.68-.18-9.33,6.36-15.85,16.36-16.3,32.44-1.44,52.56-32.09,40.91-62.33-3.37-8.76.2-17.8,8.39-21.27s17,.22,21,8.84C668.08,489.94,670.09,500.09,670.25,511.71Z"/></svg>