<svg id="Слой_1" data-name="Слой 1" xmlns="http://www.w3.org/2000/svg" viewBox="0 0 1024 1024"><defs><style>.cls-1{fill:#fff;}</style></defs><path class="cls-1" d="M512.76,112c25.66.45,51.26,1.48,76.31,7.91a41.47,41.47,0,0,1,10.75,3.87c5.7,3.3,8.2,8.4,8.18,15,0,19.49.08,39-.11,58.48,0,3.48,1,4.84,4.33,5.67A145.44,145.44,0,0,1,650,218.26c2.83,1.62,4.38,1.46,6.72-.78,14.54-14,29.26-27.75,43.91-41.59,8-7.58,14.62-8.24,23.74-2.27,50.7,33.19,93.27,74.54,125.91,125.81,6.07,9.53,5.42,16-2.31,24.16-13.86,14.64-27.63,29.37-41.6,43.9-2.36,2.44-2.66,4.3-1.23,7.35,5.66,12.05,9.94,24.66,14.09,37.29,1,3.05,2.46,4,5.66,4,19.83-.16,39.66-.09,59.49-.08,10.25,0,15.74,4.39,17.89,14.4a420.58,420.58,0,0,1,1.26,173.08c-.3,1.46-.53,3-.81,4.41-2.3,11.76-7.56,16.08-19.6,16.08-19.5,0-39,.07-58.49-.07-3.06,0-4.63.69-5.83,3.75a281.85,281.85,0,0,1-13.39,30c-1.38,2.6-.93,4,1.07,5.87q19.86,19,39.5,38.24c8.29,8.09,9,14.82,2.67,24.39-33.15,50.16-74.58,91.94-125.57,124-9.83,6.19-16.14,5.52-24.5-2.61-14.1-13.7-28.24-27.36-42.29-41.12-1.85-1.8-3.11-2.64-5.83-1.07a134.66,134.66,0,0,1-38.92,15c-2.88.64-3.62,1.73-3.6,4.57.12,19.16.07,38.32.06,57.49,0,10-3.58,15.08-13.06,18.19-15.29,5-31.15,7-47.1,8.18a443.73,443.73,0,0,1-81.33-.95c-13.25-1.43-26.42-3.3-39-7.91C419.76,897.2,416,892,416,883.75c0-19.66-.07-39.32.05-59,0-2.92-.6-4.33-3.76-5.12a150.31,150.31,0,0,1-38.68-15.72c-2.77-1.6-4.22-1-6.29,1q-21.87,20.88-43.95,41.54c-8.35,7.84-14.7,8.26-24.12,2.06-49.59-32.61-91.58-72.94-124.52-122.48-7.6-11.42-6.92-17.74,3-27.05,13.23-12.44,26.41-24.94,39.73-37.28,2.09-1.93,2.26-3.24,1-5.84-4.58-9.59-9-19.28-13-29.13-1.46-3.62-3.32-4.54-7-4.5-19.33.17-38.66.08-58,.07-11.6,0-16.7-4.12-19.14-15.4-12.74-59-12.27-118,.43-177,2-9.36,7.69-13.95,17.24-14,20,0,40-.09,60,.07,3.17,0,4.68-.86,5.7-3.94,4.32-13.1,8.75-26.18,14.68-38.65,1.42-3-.24-4.29-1.81-5.95q-20-21.29-40.12-42.54c-7.78-8.23-8.37-14.59-2.08-24.12A436.28,436.28,0,0,1,301.49,175.07c8.87-5.82,15.67-5.17,23.29,2.23,14.33,13.94,28.74,27.8,42.92,41.9,2.62,2.61,4.55,2.6,7.66,1.18a206.29,206.29,0,0,1,37-13.25c3.18-.78,3.69-2.31,3.68-5.16-.1-20.16.07-40.33-.11-60.49-.08-8.74,3.65-14.44,11.68-17.82,13.21-5.55,27.16-7.76,41.21-9.35A357.69,357.69,0,0,1,512.76,112ZM448,186.58c0,10.66.06,21.32,0,32-.07,8.78-5.18,15-13.67,16.47-20,3.42-38.73,10.63-56.78,19.72-9.29,4.69-15,3.86-22.53-3.43-13.87-13.46-27.78-26.87-41.52-40.47-2.44-2.42-4-2.82-6.95-.68a414.14,414.14,0,0,0-96.36,96.39c-2,2.8-2.12,4.39.41,7,13.52,14,26.83,28.28,40.16,42.51,6.2,6.62,6.88,12.85,2.58,20.95-1.56,2.93-3,5.91-4.44,8.92-7.43,15.84-12.21,32.67-18.47,48.95-3.92,10.19-8.14,13.1-19.18,13.1-18.66,0-37.33.07-56-.08-3.21,0-4.58.72-5.18,4.14-7.74,44.56-8.2,89.08-.18,133.67.71,4,2.32,4.65,5.84,4.62,18.83-.14,37.66-.1,56.49-.06,9.59,0,14.28,3.25,17.89,12.19C237,619.61,243.9,636.72,253,652.84c5.1,9,4,15.53-3.67,22.73-13.09,12.36-26.13,24.75-39.34,37-2.64,2.43-3.22,4-.88,7.21,26.86,37.06,59.27,68.37,96.67,94.66,2.57,1.81,3.83,1.21,5.79-.66,14.1-13.46,28.31-26.8,42.46-40.2,9.19-8.7,14.65-9.6,25.31-3.07a164.55,164.55,0,0,0,53.43,21.36c11.15,2.27,15.22,7.51,15.23,18.72,0,19.5.07,39-.08,58.49,0,2.92.79,4.2,3.67,4.51,4,.43,7.89,1.19,11.85,1.68a388.31,388.31,0,0,0,108-1.45c3.72-.58,4.61-2.19,4.58-5.8-.19-19.83-.14-39.66-.07-59.49,0-8.65,5.28-15.28,13.78-16.39,20.51-2.68,39.11-10.18,56.59-21,8.33-5.18,15-4.14,22.09,2.71,14,13.57,28,27.08,41.87,40.82,2.76,2.74,4.46,3,7.75.77,37.38-25.87,69-57.53,95.46-94.4,2.11-2.93,1.82-4.44-.71-6.84-13.28-12.63-26.4-25.43-39.5-38.25-5.87-5.75-7.24-12.58-3.35-19.53,9.54-17,17-35,24.16-53,3-7.67,8.62-11.42,17-11.37,19.33.1,38.66-.06,58,.11,3.19,0,4.24-1,4.77-4a386.62,386.62,0,0,0,0-136.16c-.53-3-1.68-4-4.81-4-16.5.17-33-.29-49.49.16-20.76.57-22.67-3.16-28.7-20.35s-11.38-34.41-20-50.44c-4.63-8.56-3.81-14.57,2.9-21.71,13.82-14.68,27.59-29.4,41.55-43.94,2.33-2.42,2.34-3.86.47-6.55-26.52-38.2-59.27-70.1-97.18-96.86-2.46-1.74-3.9-1.7-6.15.45-14.31,13.72-28.79,27.27-43.23,40.86-8.24,7.77-14.2,8.7-23.71,2.84a166.64,166.64,0,0,0-55.26-22.07c-10.08-2-14.22-7.66-14.23-18,0-19.5-.07-39,.07-58.49,0-3.25-.78-4.45-4.21-5.06-24.4-4.32-49-5.21-73.68-4.47A273.73,273.73,0,0,0,453.51,149c-4,.79-5.82,2-5.63,6.61C448.31,165.9,448,176.25,448,186.58Z"/><path class="cls-1" d="M318.4,685.16c1.16-21.35,3-42.54,10.71-62.73,6-15.55,16-26.18,33-30.17,29.28-6.87,58.34-14.69,87.52-22,6.86-1.72,12.71.2,17.57,5.56,12.43,13.69,25.1,27.17,37.44,40.93,2.8,3.13,4.14,3.91,7.27.15,11.29-13.57,23.12-26.69,34.51-40.18,5.37-6.35,11.65-8.06,19.61-6.14,30.53,7.37,61,15.11,91.73,21.56,19.36,4,30.16,16.27,37.3,33.23,9.64,22.89,13.22,47,13.67,71.61A16,16,0,0,1,693,713.61c-9,.18-15.88-6.86-16.16-16.68-.52-18-2.89-35.8-8.8-53-.38-1.1-.79-2.19-1.16-3.29-3.38-10.15-9.3-16.17-20.79-18.44-25.58-5-50.85-11.74-76.2-18-3.3-.81-5.14.12-7.21,2.54-13.3,15.57-26.75,31-40.15,46.53-8.53,9.85-18.29,10-27.21.38q-21.7-23.5-43.24-47.14c-2-2.2-3.78-3.16-6.84-2.37-25.42,6.6-50.84,13.19-76.34,19.45a11.91,11.91,0,0,0-8.67,7.32c-5,11.06-6.76,22.9-8.2,34.81-1.24,10.28-1.19,20.62-1.65,30.93S343,714,333.88,713.6s-15.57-7.78-15.48-18C318.43,692.15,318.4,688.65,318.4,685.16Z"/><path class="cls-1" d="M421.77,410.76c-.18-13.27,1.49-26.25,6.07-38.75,8.88-24.2,25.78-40,50.49-47.06,27.1-7.78,54-7,80.11,4,28.72,12.2,44.14,34.87,47.31,65.27,4.24,40.64-4.73,79.09-23,115.33-7.11,14.09-17.48,26-29.82,35.87-22.93,18.39-55.15,17.07-79-3-15.6-13.15-26.74-29.43-34.35-48.31C428.8,467.36,422.06,439.75,421.77,410.76Zm31.93.54a191.2,191.2,0,0,0,22.05,84.14A69.29,69.29,0,0,0,499,521.13c12.22,8.07,25.81,6.92,36.61-3,7.4-6.78,14.24-14.23,18.72-23.23,15.34-30.85,23.1-63.4,19.54-98-1.9-18.47-11.35-32.11-29.07-39.07-19.13-7.51-38.65-7.8-58.25-2.07-16.74,4.9-26.4,16.52-30.5,33.15A91,91,0,0,0,453.7,411.3Z"/></svg>