<svg id="Слой_1" data-name="Слой 1" xmlns="http://www.w3.org/2000/svg" viewBox="0 0 1024 1024"><defs><style>.cls-1{fill:#fff;}</style></defs><path class="cls-1" d="M512.19,911.93c-24.84-.28-49.6-1.4-73.93-7-.49-.11-1-.17-1.47-.3-13.87-3.92-21.71-5.41-20.91-26.43.66-17.3,0-34.65.21-52,0-3.1-1-4.35-3.88-5A151.15,151.15,0,0,1,376,807.34c-4.2-2.25-6.46-1.42-9.63,1.65-14,13.57-28.24,26.88-42.43,40.24-9,8.45-14.91,8.87-25.3,2.06-49.78-32.62-92.28-72.61-124.56-123-6.63-10.34-5.86-17.15,3.08-25.54,13.37-12.54,26.66-25.16,40.1-37.61,2.18-2,2.52-3.46,1.19-6.24-4.38-9.13-8.56-18.38-12.37-27.77-1.64-4-3.49-5.74-8.22-5.65-19.16.36-38.32.16-57.49.14-11.14,0-16.62-4.38-18.78-15.23-8.06-40.55-11.68-81.41-8.28-122.72A455.83,455.83,0,0,1,122,429.47c1.86-8.67,7.73-13.41,16.66-13.44,20.16,0,40.32-.09,60.48.07,3.2,0,4.68-.92,5.68-4,4.34-13.1,8.77-26.18,14.69-38.66,1.35-2.85.07-4.23-1.56-6Q197.92,345.78,178,324c-8.51-9.26-9-15-2.16-25.32,33.25-50.39,75.9-91.21,126.34-124.09,8.08-5.27,15.27-4.54,22.09,2.25Q345.72,198.2,367,219.7c2.36,2.41,4.06,2.87,7.16,1.24a107.75,107.75,0,0,1,38.38-11.81c3.34-.38,3.54-1.88,3.53-4.53q-.1-32.23,0-64.48c0-10.27,3.47-15.18,13.35-18.46,16.09-5.33,32.81-7.18,49.58-8.39,30.49-2.22,60.92-1.64,91.22,2.78a132.88,132.88,0,0,1,26.18,6.16c7.85,2.84,11.6,8.26,11.62,16.72,0,19.49.1,39-.08,58.48,0,3.24.83,4.62,4,5.41a143.83,143.83,0,0,1,38.21,15.53c3.21,1.87,4.79,1.13,7.14-1Q679,197.07,701,177.06c7.93-7.24,14.46-7.73,23.38-1.84a436.94,436.94,0,0,1,125.92,126c6,9.08,5.42,15.86-2.19,23.73q-20.83,21.57-41.83,43c-2.23,2.26-2.57,4-1.22,6.87,5.58,11.9,9.85,24.33,13.92,36.81,1.1,3.38,2.6,4.58,6.27,4.54,19.5-.21,39-.1,58.49-.1,11,0,16.32,4.18,18.58,14.79a421,421,0,0,1,1.18,172.59c-.26,1.3-.48,2.61-.72,3.92C900.51,619.7,895.36,624,882.7,624c-19.49,0-39,.07-58.48-.08-3,0-4.3,1-5.38,3.67a291.05,291.05,0,0,1-13.41,30c-1.47,2.74-.67,4,1.25,5.8q19.58,18.21,39,36.62c8.58,8.1,9.36,14.91,2.89,24.7A436.76,436.76,0,0,1,722.91,850.27c-9.32,6.13-16,5.48-24.1-2.39-14.23-13.8-28.49-27.58-42.63-41.48-2-1.92-3.25-2.35-5.84-.86a148.33,148.33,0,0,1-38.68,15.69c-3.07.75-3.76,2.14-3.74,5.08.13,19.33.07,38.66.06,58,0,9.71-3.5,14.63-12.8,17.83-16.2,5.57-33.11,7.25-50,8.57A309.88,309.88,0,0,1,512.19,911.93ZM448,188.8v32c0,13.55-5.89,19.29-19.59,19.23a85.89,85.89,0,0,0-49.36,15c-9.26,6.24-16.13,5.71-24-2.15-14-14-28.11-28-42-42.12-2.36-2.39-3.84-2.47-6.54-.56-37.16,26.31-69.44,57.54-96.12,94.52-2.28,3.16-2.33,4.94.38,7.84,13.44,14.34,26.66,28.9,39.9,43.43,6.37,7,7,13,2.5,21.39-1.49,2.78-2.89,5.62-4.23,8.48-7.5,16-12.32,33-18.65,49.42-3.71,9.62-8.16,12.75-18.41,12.76-19,0-38,0-57-.06-2.69,0-4.22.38-4.7,3.48-2,12.83-3.95,25.67-5,38.61-2.68,33.23-.56,66.22,4.92,99.05.63,3.74,2.16,4.69,5.81,4.65,18.66-.19,37.33-.1,56-.08,10.2,0,14.45,2.88,18.26,12.24,6.89,16.94,13.65,33.92,22.72,49.88,5.27,9.27,4.15,15.78-3.69,23.17-13,12.22-25.88,24.52-39,36.54-3.06,2.8-3.46,4.5-.94,8,26.45,37.24,59.12,68,96.48,94.06,2.46,1.71,3.76,1.38,5.81-.59,14.44-13.82,29-27.51,43.57-41.22,7.64-7.19,13.3-8.13,22.56-3.22,17.71,9.39,36,17,55.78,21,10.67,2.14,14.59,7.67,14.59,18.75,0,19.33.05,38.66,0,58,0,2.9.47,4.24,3.84,4.86a298.68,298.68,0,0,0,41.2,4.3c26.35,1.16,52.6.24,78.68-4.17,3.73-.64,4.4-2.07,4.37-5.48-.15-19.83-.11-39.66,0-59.48,0-8.69,4.59-14.75,13.08-16.42a168.77,168.77,0,0,0,57.11-22.74c8.59-5.34,15.17-4.26,22.48,2.84,13.87,13.46,27.78,26.88,41.54,40.45,2.49,2.47,4.11,3.16,7.38.82a413.59,413.59,0,0,0,95.73-95.63c2.1-2.92,2-4.43-.65-6.88-13.13-12.06-26.09-24.3-39-36.57-6.19-5.88-7.62-12.8-3.64-19.9,9.46-16.88,16.83-34.67,24-52.58,3.44-8.6,8.33-11.74,17.66-11.75,19.16,0,38.32-.06,57.48.06,2.78,0,4.17-.52,4.65-3.55,2-13,4-26,5-39.11A390.1,390.1,0,0,0,874,452.33c-.61-3.57-2-4.45-5.46-4.4-16.33.19-32.66.08-49,.08-20.45,0-21.79-1-28.63-20.33-6-16.91-11.28-34.1-19.85-50-4.9-9.07-4-15.14,3.11-22.49,13.59-14,27.11-28,40.8-41.9,2.34-2.36,2.5-3.84.54-6.6A412.36,412.36,0,0,0,718.74,210c-3-2.13-4.51-1.77-7,.58-14.37,13.41-28.92,26.63-43.43,39.9-7.31,6.69-13.7,7.59-22.19,2.32a167.58,167.58,0,0,0-56.15-22.52c-9.73-1.93-13.93-7.69-13.94-17.73,0-19.5-.11-39,.08-58.49,0-3.56-.92-4.82-4.51-5.37-7.73-1.19-15.47-2.3-23.27-3-32.32-2.73-64.53-2.38-96.6,3.16-3,.52-3.77,1.57-3.74,4.44C448.1,165.14,448,177,448,188.8Z"/><path class="cls-1" d="M744,511.89C744.32,639.36,640.31,743.68,512.6,744c-128.06.27-232-103.19-232.55-231.37-.51-128,103.62-232.45,231.85-232.54C639.89,280,743.59,383.55,744,511.89ZM511.65,712c109.68.58,199.75-88.91,200.3-199,.55-110.32-88.36-200.15-198.86-200.92-110.33-.77-200.23,88.32-201,199.22C311.23,621.32,400.8,711.37,511.65,712Z"/><path class="cls-1" d="M514.41,558.28c-4.68,0-8.14-1.31-11.66-2.25q-48.88-13.08-97.75-26.2c-9.75-2.62-15-8.79-14.59-17,.59-10.75,10.32-17.32,21.51-14.35,27.14,7.22,54.48,13.79,81.27,22.12,11.88,3.7,19.22,1.51,27.95-7.17,32.34-32.19,65.64-63.42,98.55-95,3-2.84,6.16-5.05,10.36-5.46a15.94,15.94,0,0,1,16.36,9c3,6.32,1.9,13.12-3.42,18.33-11.06,10.85-22.28,21.52-33.46,32.24q-41.47,39.78-82.93,79.57C522.86,555.74,518.9,558.51,514.41,558.28Z"/></svg>