<svg id="Слой_1" data-name="Слой 1" xmlns="http://www.w3.org/2000/svg" viewBox="0 0 1024 1024"><defs><style>.cls-1{fill:#fff;}</style></defs><path class="cls-1" d="M512,368q-189,0-377.9-.13c-5,0-6.18,1.16-6.17,6.17q.24,187.71.14,375.41c0,30,20.63,50.48,50.57,50.47q62,0,124,0c12.56,0,20.58,10.83,16.32,21.8-2.52,6.45-8.36,10.17-16.22,10.17-33.33,0-66.65.11-100,0-12.48-.06-25,.89-37.44-.78a80,80,0,0,1-69.19-78.7c-.15-62.32-.05-124.64-.05-186.95q0-154,0-307.93c0-39.69,26.09-71.86,64.83-80A76.82,76.82,0,0,1,176.81,176q334.91,0,669.83,0c46.07,0,81.26,35.36,81.27,81.41q0,246.43,0,492.88c0,46.28-35.32,81.55-81.66,81.57q-78.22,0-156.46,0c-10.57,0-17.84-6.56-17.83-16s7.26-16,17.87-16q77.49,0,155,0c30.67,0,51.13-20.38,51.12-51q0-187.69.1-375.4c0-4.47-1-5.68-5.6-5.68Q701.22,368.13,512,368Zm-.45-32q189.44,0,378.87.12c4.64,0,5.64-1.26,5.6-5.7-.23-24.16-.1-48.32-.11-72.48,0-29-20.76-49.9-49.62-49.9q-334.39,0-668.77,0c-28.52,0-49.43,21-49.47,49.56,0,24.33.16,48.65-.12,73-.06,4.77,1.43,5.54,5.76,5.54Q322.64,336,511.57,336Z"/><path class="cls-1" d="M425.73,751.81c-.11-5.25,2.5-9.12,6-12.68q74.07-74.68,148.08-149.44c6.92-7,13.87-13.93,20.76-20.94,4.86-4.94,10.49-6.67,17.28-4.79q19.7,5.46,39.46,10.66a19.78,19.78,0,0,1,9.67,5.82q11.76,12.6,23.64,25.1a22.66,22.66,0,0,1,5.18,9c3.88,12.19,7.67,24.41,11.71,36.54,2.49,7.47.82,13.61-4.68,19.1q-85.22,85.11-170.36,170.28c-7.44,7.43-17.35,7.78-23.93,1s-6.05-16.3,1.55-23.9q80.19-80.24,160.49-160.36c3-3,3.65-5.47,2.33-9.49-7.61-23.2-7.52-23.22-25.24-41.15a9.52,9.52,0,0,0-4.62-2.7c-7.24-1.86-14.49-3.74-21.64-5.91-3-.9-4.75-.14-6.87,2Q538.38,677.14,462,754.14c-3.28,3.31-6.44,6.78-10,9.82-5.12,4.41-10.95,5.14-17.24,2.48C428.3,763.67,425.84,758.49,425.73,751.81Z"/><path class="cls-1" d="M480.19,806.24c-6.81,0-11.84-3.17-14.69-9.3-3-6.4-1.76-12.46,2.95-17.57,4.41-4.76,9.18-9.19,13.8-13.76Q554.7,693.9,627.13,622.15c4.7-4.66,9.93-7.36,16.59-5.7,12.45,3.11,16.39,17.86,7.12,27.2-15.72,15.84-31.66,31.47-47.52,47.18q-54.87,54.31-109.73,108.64C489.82,803.21,485.89,806.39,480.19,806.24Z"/><path class="cls-1" d="M410,863.57c9.92-2.54,19-4.87,28.15-7.22,16.58-4.26,33.13-8.6,49.74-12.75,6.68-1.66,12.22.78,16.22,6.17s4.15,11.08,1.15,16.93a15.47,15.47,0,0,1-10.33,8c-30.55,7.92-61.09,16-91.72,23.58-14.88,3.71-27-4.84-28.86-19.51-.44-3.55.51-6.94,1.37-10.3q11.24-43.95,22.61-87.87c3.35-12.91,14-17.88,24.55-11.66,6.48,3.81,8.83,10.49,6.61,19.13C423.06,812.89,416.65,837.66,410,863.57Z"/><path class="cls-1" d="M288.05,307.14a32,32,0,1,1,32-31.54A32,32,0,0,1,288.05,307.14Z"/><path class="cls-1" d="M383.88,307.14a32,32,0,0,1,0-63.95A32.34,32.34,0,0,1,416,275.25,31.94,31.94,0,0,1,383.88,307.14Z"/><path class="cls-1" d="M192,307.16a32,32,0,1,1,.43-64,32.38,32.38,0,0,1,31.67,32A32,32,0,0,1,192,307.16Z"/></svg>