<svg id="Слой_1" data-name="Слой 1" xmlns="http://www.w3.org/2000/svg" viewBox="0 0 1024 1024"><defs><style>.cls-1{fill:#fff;}</style></defs><path class="cls-1" d="M831.94,560q0,159.46,0,318.93c0,39.32-26.29,71.47-64.81,79.51a80.23,80.23,0,0,1-16.38,1.51q-238.69,0-477.39-.05c-46,0-81.26-35.39-81.27-81.41q0-318.42,0-636.85c0-46.29,35.27-81.5,81.62-81.56q54.74-.06,109.47,0c13,0,20.92,12.67,14.85,23.61-3.3,5.94-8.59,8.4-15.35,8.39-36.65-.07-73.31,0-110,0a46.79,46.79,0,0,0-32.38,12.22c-11,9.9-16.29,22.35-16.28,37.2q.06,175.45,0,350.91,0,142.47,0,284.94c0,29.94,20.47,50.58,50.45,50.59q237.45,0,474.89,0c30,0,50.54-20.49,50.55-50.49q0-317.43,0-634.85c0-30-20.61-50.53-50.52-50.51q-54.24,0-108.48,0c-12.2,0-20.15-10.95-15.82-21.72,2.6-6.49,7.65-10.18,14.65-10.19,39-.08,78-.74,117,.24,41,1,75,37.11,75.15,78.71.25,56.48.07,113,.08,169.46Q832,484.27,831.94,560Z"/><path class="cls-1" d="M768,576.23c0,79.81.22,159.62-.11,239.43-.13,31.68-15.14,55.24-42.49,70.85A72.5,72.5,0,0,1,689,895.89q-177.21,0-354.4-.07c-42.4-.08-78.38-35.81-78.45-78q-.36-216.43-.14-432.87a17,17,0,0,1,5.11-12.57Q316.81,316.68,372.47,261c3.78-3.78,8.37-5,13.62-5q130.71.09,261.43,0c13.33,0,26.66-.06,40,0,45.06.27,80.38,35.66,80.42,80.74Q768,456.52,768,576.23Zm-32,.26q0-119.48,0-238.95c0-28.56-20.9-49.48-49.54-49.49q-145.47,0-290.94-.08a10.55,10.55,0,0,0-8.26,3.39q-47.4,47.67-95.08,95.08a12.69,12.69,0,0,0-4.18,9.94q.17,209.21.11,418.42a47.71,47.71,0,0,0,.41,7.47c4,24.91,23.59,41.64,49,41.65q173.71,0,347.43,0c30.68,0,51.07-20.37,51.07-51Z"/><path class="cls-1" d="M512,224.05q-31.22,0-62.44,0c-20.74,0-33.51-12.9-33.56-33.74,0-14.81.38-29.65-.1-44.45-.65-19.79,13.17-33.15,29.37-33.65,2.73-.09,2.7-1.44,2.76-3.45.21-6.64-.69-13.3.76-19.91,3.14-14.31,14.72-24.46,29.33-24.65q33.71-.44,67.43,0c16.93.24,29.75,13.33,30.35,30.28.18,4.82.15,9.66,0,14.48-.06,2.25.5,3,2.94,3.29,18.57,2.39,29,14.36,29.09,33q.07,23,0,46c-.08,19.7-13.19,32.71-33,32.8-10.49,0-21,0-31.48,0Zm-.54-32c20.14,0,40.29-.07,60.43.07,3.18,0,4.21-.71,4.16-4.06q-.3-20,0-39.95c.05-3.25-.84-4.13-4.11-4.13q-59.93.18-119.86,0c-3.18,0-4.21.7-4.16,4.06.2,13.14.23,26.3,0,39.45-.07,3.73.88,4.68,4.63,4.64C472.19,192,491.84,192.06,511.48,192.06Zm.38-80h19.95c12.51,0,12.36,0,12.28-12.33,0-3.29-1.17-3.74-4-3.72-16,.12-31.92,0-47.88,0-12.49,0-12.34,0-12.29,12.36,0,3.32,1.19,3.75,4,3.7C493.23,112,502.55,112.07,511.86,112.07Z"/><path class="cls-1" d="M584.48,480c23.8,0,47.6-.06,71.39,0a16,16,0,0,1,3.49,31.58,18.08,18.08,0,0,1-4,.36q-71.4,0-142.8,0c-8.8,0-15.59-6-16.52-14.22a16,16,0,0,1,12.54-17.35,28.77,28.77,0,0,1,6-.39Q549.52,480,584.48,480Z"/><path class="cls-1" d="M584.26,608c23.63,0,47.27-.07,70.9,0,12,0,19.69,10.64,15.84,21.36a15.67,15.67,0,0,1-14.88,10.57q-72.15.09-144.3,0A15.83,15.83,0,0,1,496,624c0-8.88,7.05-15.91,16.36-16C536.33,607.91,560.29,608,584.26,608Z"/><path class="cls-1" d="M584.26,736q34.95,0,69.91,0c10.57,0,17.81,6.56,17.79,16s-7.22,16-17.85,16q-70.4,0-140.8,0c-10.08,0-17.31-6.77-17.3-16s7.2-15.94,17.35-16Q548.81,735.93,584.26,736Z"/><path class="cls-1" d="M416,330.59c2.09,44-29.22,74.73-61.45,82.88-12,3-24.1,2.87-36.21,2.36-8.36-.36-14.55-8-14.3-16.35a16,16,0,0,1,15.36-15.43c7.8-.37,15.63.56,23.42-.82A49.33,49.33,0,0,0,384,334.63c0-4.83-.08-9.66,0-14.48.2-9,7-16,15.71-16.11,9-.12,16,6.77,16.25,16.06C416.1,323.6,416,327.09,416,330.59Z"/><path class="cls-1" d="M371.12,601.68c5-.12,9,2,12.37,5.55,6.2,6.52,12.54,12.91,18.57,19.57,2.26,2.5,3.5,2.41,5.78,0,13.37-14,26.91-27.75,40.36-41.62,4.6-4.74,9.86-7.26,16.59-5.43,11.62,3.16,16.29,17,8,25.75-18.74,19.88-37.86,39.39-57.06,58.82-6.25,6.33-15.78,6.15-22-.19-11.57-11.75-22.93-23.71-34.19-35.76-4.75-5.08-5.75-11.17-2.72-17.57C359.65,604.86,364.56,601.91,371.12,601.68Z"/><path class="cls-1" d="M404.61,539.11c-4.35.17-8.31-1.72-11.57-5.12-11.07-11.54-22.2-23-33.12-34.71-6.54-7-6.25-16.59.29-22.83s16.12-6,22.82.81c6.43,6.52,12.87,13.06,18.92,19.93,2.67,3,4,2.45,6.47-.08,13.43-13.67,27-27.17,40.6-40.69,4.6-4.58,10-6.44,16.42-4.45,6.12,1.91,9.77,6.15,11.06,12.35a15,15,0,0,1-4.42,14.17q-27.85,28-55.83,55.86A15.63,15.63,0,0,1,404.61,539.11Z"/><path class="cls-1" d="M415.73,779.05A32,32,0,1,1,448,747.31,32,32,0,0,1,415.73,779.05Z"/></svg>