<svg id="Слой_1" data-name="Слой 1" xmlns="http://www.w3.org/2000/svg" viewBox="0 0 1024 1024"><defs><style>.cls-1{fill:#fff;}</style></defs><path class="cls-1" d="M923,399.09c-.05,14.51-2.5,24.62-7.36,34.1-5.77,11.25-11.37,22.59-17.56,33.6-10.45,18.6-11.59,38.6-9.62,59.12A87.62,87.62,0,0,0,898.85,559c5.64,10.56,10.77,21.39,16.11,32.1,17.53,35.22,5.29,74-29.29,92.79-13.44,7.29-27.15,14.13-40.4,21.75-26.78,15.41-43.3,38.21-48.33,69-2.54,15.6-4.58,31.32-8,46.72-7.65,34.52-41.4,56.39-76.23,50.19-14.57-2.59-29.11-5.84-43.81-7.23-28.57-2.7-54.55,4.27-75.86,24.49-10.63,10.09-20.75,20.72-31.15,31.05-28.23,28-68.43,28-96.67-.1-9.92-9.86-19.68-19.9-29.72-29.66-22.08-21.48-48.49-29.91-79-25.81-16.17,2.17-32.34,4.38-48.55,6.12-32.83,3.52-64.44-19.32-71.78-51.52-4.1-18-7.68-36.13-12.54-53.92-6.82-24.94-21.56-44.49-43.76-57.87-13.67-8.23-27.86-15.59-41.82-23.33-34.56-19.19-46.54-57.66-28.92-92.93,6.16-12.34,12.76-24.49,18.45-37,12.51-27.61,12-55.58.15-83.19-5.66-13.1-12.67-25.62-19.07-38.4-16.65-33.29-5.34-71.82,26.93-90.4,14.4-8.3,29.5-15.38,43.83-23.8,26.42-15.53,42.83-38.29,47.65-68.94,2.18-13.8,4.26-27.63,6.78-41.37,6.95-37.9,39.26-60.87,77.24-55.37,16.47,2.39,32.95,5.33,49.53,6.24,26.51,1.46,50.82-5.49,70.88-23.81,12.42-11.35,24.19-23.41,36.67-34.68a65.12,65.12,0,0,1,87.07-.46c12,10.75,23,22.67,34.56,34,22.3,21.89,49,30.32,79.86,26.07,16.49-2.27,33-4.93,49.55-6.11,32.26-2.3,66.21,19.27,71.72,59.49,2.11,15.33,3.91,30.79,7.5,45.8,6.24,26.12,21.57,46.28,44.68,60,14.15,8.38,29,15.52,43.44,23.46C910.4,355.39,921.87,376.06,923,399.09ZM133,622.62c.53,14.19,6.46,25.23,19.06,32.29,14.66,8.2,29.56,16,44,24.57,28,16.71,47.23,41,56.84,72,6,19.32,9.66,39.38,14.21,59.14,4.1,17.75,20.42,29.94,38.35,27.95q23.81-2.64,47.54-6.06c34.86-5.06,66.17,3.87,93.82,24.86,15.38,11.68,27.76,26.83,41.56,40.35,15,14.65,35.44,14.8,50.28.11,10.06-10,20.18-19.88,30-30.07a106.49,106.49,0,0,1,36-24.68c23.32-9.74,47.39-14.25,72.65-10,14,2.34,27.86,4.93,41.86,6.89,19.79,2.78,36.17-9.39,39.61-29.16C761,797.85,763,784.85,765,771.86c6.51-42.53,28.91-74,66.22-95,13.32-7.5,27-14.42,40.37-21.82,18.14-10,24.38-30.23,15.21-48.83-5.07-10.28-10-20.64-15.46-30.73-8.1-15-13.39-30.78-14.87-47.75-2.22-25.6-.3-50.52,12.29-73.71,6-11.11,11.65-22.42,17.46-33.65,10-19.42,3.81-39.9-15.37-50.26-14-7.59-28.29-14.81-42.16-22.7C799,330.5,779.09,305.3,769,272.86c-5.66-18.28-6.94-37.58-10-56.45-3.12-19.3-19.78-33.1-38.81-31-16.2,1.81-32.35,4.14-48.53,6.21-37.49,4.79-70.63-5.38-98.93-30.14-12.51-10.95-23.66-23.43-35.53-35.12-15-14.73-34.63-15-49.88-.6-11.88,11.19-23.31,22.9-35.55,33.68-27.17,23.93-59.45,33.31-95.12,30.84a511,511,0,0,1-52-6.56c-15.57-2.71-35.76,7.35-39.48,29.64Q262,232.82,259,252.32c-6.51,42.34-28.94,73.66-65.9,94.73-13.28,7.58-27,14.43-40.4,21.76-18.4,10-24.74,30.41-15.41,49.15,5.33,10.71,10.4,21.57,16.11,32.08A118.17,118.17,0,0,1,167.64,497c2.15,25.25,0,49.84-12.13,72.81-6.29,11.9-12.09,24.06-18.12,36.09C134.75,611.12,132.93,616.6,133,622.62Z"/><path class="cls-1" d="M567.28,464h33.35c20.67,0,41.33.22,62-.06,22.3-.31,37.64,10.15,47.44,29.57,8.43,16.71,10.85,34.82,11.91,53.19,1.44,25.13-2,49.86-6.43,74.48-2.35,13.11-2.75,26.52-5.89,39.49C702.55,689.93,683,706.49,654.7,714c-19.14,5-38.76,6.26-58.41,6.91-46.52,1.54-92.9-1.61-139.26-5-17.24-1.26-32.22-8.88-47.09-16.79a44.46,44.46,0,0,1-6.51-3.66c-8.48-6.57-18-8.12-28.53-7.59-12.46.63-25,.18-37.48.14-10.17,0-17.36-6.68-17.38-16s7.2-16,17.33-16c18.67,0,37.33,0,56-.06a22.32,22.32,0,0,1,11.81,3.31c8.31,4.89,16.71,9.64,25.11,14.38a84.74,84.74,0,0,0,37.39,11.17c48.9,2.74,97.76,6.62,146.78,3.05,11.95-.86,23.81-2.41,35.4-5.77,17.85-5.16,27.92-16.93,29.89-35.22,2.51-23.35,7.81-46.32,9.7-69.72,1.7-21.16,1.54-42.28-5.24-62.79a47.13,47.13,0,0,0-4.12-9.06c-3.67-6.25-8.79-9.38-16.34-9.35-39,.18-78,.07-117,.08-15.08,0-22.2-10.29-16.7-24.27,10.79-27.47,19.53-55.53,23.46-84.88,2.69-20.11,2.53-40.19-2.56-60A35.32,35.32,0,0,0,544.43,313c-2.23-2.73-5.08-4.51-8.68-4s-3.77,4-4.49,6.5c-3.42,12.1-4,24.65-5,37.07a104.47,104.47,0,0,1-15.45,47.93c-18.09,29-37.21,57.19-62.27,80.9-13.67,12.94-26.78,26.48-40,39.92a20.72,20.72,0,0,1-15.95,6.75c-18.32-.21-36.66-.06-55-.09-10.46,0-17.74-6.76-17.6-16.24.14-9.25,7.33-15.72,17.61-15.74,15.49,0,31-.11,46.49.06a9.85,9.85,0,0,0,7.78-3.3c15.93-16.11,32.75-31.43,47.84-48.29,19.78-22.12,36.93-46.35,50.08-73.1,4.32-8.79,4.14-18.77,5.13-28.36,1.22-11.75,1.91-23.6,5.13-35,4.1-14.52,11.52-26.29,27.41-30,17.42-4.12,35.22,3.72,45.4,19.85,8.3,13.14,11.39,27.89,13.07,43.05,4.45,40.16-4.25,78.44-16.54,116.21C568.73,459.25,568.07,461.46,567.28,464Z"/></svg>